G04 #@! TF.FileFunction,Legend,Bot*
%FSLAX46Y46*%
G04 Gerber Fmt 4.6, Leading zero omitted, Abs format (unit mm)*
G04 Created by KiCad (PCBNEW 4.0.4-stable) date Wed Oct 19 09:49:36 2016*
%MOMM*%
%LPD*%
G01*
G04 APERTURE LIST*
%ADD10C,0.100000*%
%ADD11C,0.300000*%
%ADD12C,0.200000*%
%ADD13C,0.150000*%
%ADD14C,1.924000*%
%ADD15R,2.127200X2.127200*%
%ADD16O,2.127200X2.127200*%
%ADD17R,2.100000X2.400000*%
%ADD18R,1.290000X1.500000*%
%ADD19R,1.500000X0.800000*%
%ADD20R,1.700000X1.700000*%
%ADD21C,1.700000*%
%ADD22R,3.100020X2.950160*%
%ADD23R,4.199840X2.950160*%
%ADD24R,1.150000X1.600000*%
%ADD25R,2.127200X2.432000*%
%ADD26O,2.127200X2.432000*%
%ADD27C,6.800000*%
G04 APERTURE END LIST*
D10*
D11*
X208551428Y-93998571D02*
X209408571Y-93998571D01*
X208979999Y-93998571D02*
X208979999Y-92498571D01*
X209122856Y-92712857D01*
X209265714Y-92855714D01*
X209408571Y-92927143D01*
X207622857Y-92498571D02*
X207480000Y-92498571D01*
X207337143Y-92570000D01*
X207265714Y-92641429D01*
X207194285Y-92784286D01*
X207122857Y-93070000D01*
X207122857Y-93427143D01*
X207194285Y-93712857D01*
X207265714Y-93855714D01*
X207337143Y-93927143D01*
X207480000Y-93998571D01*
X207622857Y-93998571D01*
X207765714Y-93927143D01*
X207837143Y-93855714D01*
X207908571Y-93712857D01*
X207980000Y-93427143D01*
X207980000Y-93070000D01*
X207908571Y-92784286D01*
X207837143Y-92641429D01*
X207765714Y-92570000D01*
X207622857Y-92498571D01*
X206194286Y-92498571D02*
X206051429Y-92498571D01*
X205908572Y-92570000D01*
X205837143Y-92641429D01*
X205765714Y-92784286D01*
X205694286Y-93070000D01*
X205694286Y-93427143D01*
X205765714Y-93712857D01*
X205837143Y-93855714D01*
X205908572Y-93927143D01*
X206051429Y-93998571D01*
X206194286Y-93998571D01*
X206337143Y-93927143D01*
X206408572Y-93855714D01*
X206480000Y-93712857D01*
X206551429Y-93427143D01*
X206551429Y-93070000D01*
X206480000Y-92784286D01*
X206408572Y-92641429D01*
X206337143Y-92570000D01*
X206194286Y-92498571D01*
X204408572Y-92998571D02*
X204408572Y-93998571D01*
X205051429Y-92998571D02*
X205051429Y-93784286D01*
X204980001Y-93927143D01*
X204837143Y-93998571D01*
X204622858Y-93998571D01*
X204480001Y-93927143D01*
X204408572Y-93855714D01*
X203194286Y-93212857D02*
X203694286Y-93212857D01*
X203694286Y-93998571D02*
X203694286Y-92498571D01*
X202980000Y-92498571D01*
X228871428Y-92723571D02*
X229728571Y-92723571D01*
X229299999Y-92723571D02*
X229299999Y-91223571D01*
X229442856Y-91437857D01*
X229585714Y-91580714D01*
X229728571Y-91652143D01*
X227942857Y-91223571D02*
X227800000Y-91223571D01*
X227657143Y-91295000D01*
X227585714Y-91366429D01*
X227514285Y-91509286D01*
X227442857Y-91795000D01*
X227442857Y-92152143D01*
X227514285Y-92437857D01*
X227585714Y-92580714D01*
X227657143Y-92652143D01*
X227800000Y-92723571D01*
X227942857Y-92723571D01*
X228085714Y-92652143D01*
X228157143Y-92580714D01*
X228228571Y-92437857D01*
X228300000Y-92152143D01*
X228300000Y-91795000D01*
X228228571Y-91509286D01*
X228157143Y-91366429D01*
X228085714Y-91295000D01*
X227942857Y-91223571D01*
X226514286Y-91223571D02*
X226371429Y-91223571D01*
X226228572Y-91295000D01*
X226157143Y-91366429D01*
X226085714Y-91509286D01*
X226014286Y-91795000D01*
X226014286Y-92152143D01*
X226085714Y-92437857D01*
X226157143Y-92580714D01*
X226228572Y-92652143D01*
X226371429Y-92723571D01*
X226514286Y-92723571D01*
X226657143Y-92652143D01*
X226728572Y-92580714D01*
X226800000Y-92437857D01*
X226871429Y-92152143D01*
X226871429Y-91795000D01*
X226800000Y-91509286D01*
X226728572Y-91366429D01*
X226657143Y-91295000D01*
X226514286Y-91223571D01*
X224728572Y-91723571D02*
X224728572Y-92723571D01*
X225371429Y-91723571D02*
X225371429Y-92509286D01*
X225300001Y-92652143D01*
X225157143Y-92723571D01*
X224942858Y-92723571D01*
X224800001Y-92652143D01*
X224728572Y-92580714D01*
X223514286Y-91937857D02*
X224014286Y-91937857D01*
X224014286Y-92723571D02*
X224014286Y-91223571D01*
X223300000Y-91223571D01*
X230228571Y-93773571D02*
X229371428Y-93773571D01*
X229799999Y-95273571D02*
X229799999Y-93773571D01*
X228942857Y-94845000D02*
X228228571Y-94845000D01*
X229085714Y-95273571D02*
X228585714Y-93773571D01*
X228085714Y-95273571D01*
X227585714Y-95273571D02*
X227585714Y-93773571D01*
X226728571Y-95273571D01*
X226728571Y-93773571D01*
X226228571Y-93773571D02*
X225371428Y-93773571D01*
X225799999Y-95273571D02*
X225799999Y-93773571D01*
X224942857Y-94845000D02*
X224228571Y-94845000D01*
X225085714Y-95273571D02*
X224585714Y-93773571D01*
X224085714Y-95273571D01*
X222871428Y-95273571D02*
X223585714Y-95273571D01*
X223585714Y-93773571D01*
X218068571Y-92728571D02*
X218925714Y-92728571D01*
X218497142Y-92728571D02*
X218497142Y-91228571D01*
X218639999Y-91442857D01*
X218782857Y-91585714D01*
X218925714Y-91657143D01*
X217140000Y-91228571D02*
X216997143Y-91228571D01*
X216854286Y-91300000D01*
X216782857Y-91371429D01*
X216711428Y-91514286D01*
X216640000Y-91800000D01*
X216640000Y-92157143D01*
X216711428Y-92442857D01*
X216782857Y-92585714D01*
X216854286Y-92657143D01*
X216997143Y-92728571D01*
X217140000Y-92728571D01*
X217282857Y-92657143D01*
X217354286Y-92585714D01*
X217425714Y-92442857D01*
X217497143Y-92157143D01*
X217497143Y-91800000D01*
X217425714Y-91514286D01*
X217354286Y-91371429D01*
X217282857Y-91300000D01*
X217140000Y-91228571D01*
X215711429Y-91228571D02*
X215568572Y-91228571D01*
X215425715Y-91300000D01*
X215354286Y-91371429D01*
X215282857Y-91514286D01*
X215211429Y-91800000D01*
X215211429Y-92157143D01*
X215282857Y-92442857D01*
X215354286Y-92585714D01*
X215425715Y-92657143D01*
X215568572Y-92728571D01*
X215711429Y-92728571D01*
X215854286Y-92657143D01*
X215925715Y-92585714D01*
X215997143Y-92442857D01*
X216068572Y-92157143D01*
X216068572Y-91800000D01*
X215997143Y-91514286D01*
X215925715Y-91371429D01*
X215854286Y-91300000D01*
X215711429Y-91228571D01*
X214568572Y-91728571D02*
X214568572Y-92728571D01*
X214568572Y-91871429D02*
X214497144Y-91800000D01*
X214354286Y-91728571D01*
X214140001Y-91728571D01*
X213997144Y-91800000D01*
X213925715Y-91942857D01*
X213925715Y-92728571D01*
D12*
X216390000Y-78080000D02*
X216390000Y-75540000D01*
X213850000Y-80620000D02*
X216390000Y-78080000D01*
X213850000Y-83160000D02*
X213850000Y-80620000D01*
X213850000Y-75540000D02*
X213850000Y-73000000D01*
X218930000Y-75540000D02*
X213850000Y-75540000D01*
X218930000Y-73000000D02*
X218930000Y-75540000D01*
X213850000Y-73000000D02*
X218930000Y-73000000D01*
D11*
X217532857Y-73520000D02*
X217675714Y-73448571D01*
X217890000Y-73448571D01*
X218104285Y-73520000D01*
X218247143Y-73662857D01*
X218318571Y-73805714D01*
X218390000Y-74091429D01*
X218390000Y-74305714D01*
X218318571Y-74591429D01*
X218247143Y-74734286D01*
X218104285Y-74877143D01*
X217890000Y-74948571D01*
X217747143Y-74948571D01*
X217532857Y-74877143D01*
X217461428Y-74805714D01*
X217461428Y-74305714D01*
X217747143Y-74305714D01*
X216818571Y-74948571D02*
X216818571Y-73448571D01*
X215961428Y-74948571D01*
X215961428Y-73448571D01*
X215247142Y-74948571D02*
X215247142Y-73448571D01*
X214889999Y-73448571D01*
X214675714Y-73520000D01*
X214532856Y-73662857D01*
X214461428Y-73805714D01*
X214389999Y-74091429D01*
X214389999Y-74305714D01*
X214461428Y-74591429D01*
X214532856Y-74734286D01*
X214675714Y-74877143D01*
X214889999Y-74948571D01*
X215247142Y-74948571D01*
D12*
X216390000Y-81890000D02*
X217660000Y-81890000D01*
X216390000Y-84430000D02*
X216390000Y-81890000D01*
X216390000Y-70460000D02*
X216390000Y-71730000D01*
X216390000Y-46330000D02*
X216390000Y-70460000D01*
X216390000Y-103480000D02*
X216390000Y-94590000D01*
X222740000Y-81890000D02*
X217660000Y-81890000D01*
X225280000Y-79350000D02*
X222740000Y-81890000D01*
X225280000Y-76810000D02*
X225280000Y-79350000D01*
X222740000Y-76810000D02*
X222740000Y-71730000D01*
X227820000Y-76810000D02*
X222740000Y-76810000D01*
X227820000Y-71730000D02*
X227820000Y-76810000D01*
X222740000Y-71730000D02*
X227820000Y-71730000D01*
D11*
X227494285Y-72173571D02*
X226565714Y-72173571D01*
X227065714Y-72745000D01*
X226851428Y-72745000D01*
X226708571Y-72816429D01*
X226637142Y-72887857D01*
X226565714Y-73030714D01*
X226565714Y-73387857D01*
X226637142Y-73530714D01*
X226708571Y-73602143D01*
X226851428Y-73673571D01*
X227280000Y-73673571D01*
X227422857Y-73602143D01*
X227494285Y-73530714D01*
X225922857Y-73530714D02*
X225851429Y-73602143D01*
X225922857Y-73673571D01*
X225994286Y-73602143D01*
X225922857Y-73530714D01*
X225922857Y-73673571D01*
X225351428Y-72173571D02*
X224422857Y-72173571D01*
X224922857Y-72745000D01*
X224708571Y-72745000D01*
X224565714Y-72816429D01*
X224494285Y-72887857D01*
X224422857Y-73030714D01*
X224422857Y-73387857D01*
X224494285Y-73530714D01*
X224565714Y-73602143D01*
X224708571Y-73673571D01*
X225137143Y-73673571D01*
X225280000Y-73602143D01*
X225351428Y-73530714D01*
X223994286Y-72173571D02*
X223494286Y-73673571D01*
X222994286Y-72173571D01*
X226244285Y-76223571D02*
X226958571Y-76223571D01*
X226958571Y-74723571D01*
X225744285Y-75437857D02*
X225244285Y-75437857D01*
X225029999Y-76223571D02*
X225744285Y-76223571D01*
X225744285Y-74723571D01*
X225029999Y-74723571D01*
X224387142Y-76223571D02*
X224387142Y-74723571D01*
X224029999Y-74723571D01*
X223815714Y-74795000D01*
X223672856Y-74937857D01*
X223601428Y-75080714D01*
X223529999Y-75366429D01*
X223529999Y-75580714D01*
X223601428Y-75866429D01*
X223672856Y-76009286D01*
X223815714Y-76152143D01*
X224029999Y-76223571D01*
X224387142Y-76223571D01*
D12*
X230360000Y-83160000D02*
X297670000Y-83160000D01*
X203690000Y-83160000D02*
X126220000Y-83160000D01*
X211310000Y-81890000D02*
X211310000Y-83160000D01*
X210040000Y-76810000D02*
X208770000Y-76810000D01*
X210040000Y-71730000D02*
X210040000Y-76810000D01*
X204960000Y-71730000D02*
X210040000Y-71730000D01*
X204960000Y-76810000D02*
X204960000Y-71730000D01*
X208770000Y-76810000D02*
X204960000Y-76810000D01*
X208770000Y-81890000D02*
X208770000Y-76810000D01*
X211310000Y-81890000D02*
X208770000Y-81890000D01*
D11*
X209714285Y-72173571D02*
X208785714Y-72173571D01*
X209285714Y-72745000D01*
X209071428Y-72745000D01*
X208928571Y-72816429D01*
X208857142Y-72887857D01*
X208785714Y-73030714D01*
X208785714Y-73387857D01*
X208857142Y-73530714D01*
X208928571Y-73602143D01*
X209071428Y-73673571D01*
X209500000Y-73673571D01*
X209642857Y-73602143D01*
X209714285Y-73530714D01*
X208142857Y-73530714D02*
X208071429Y-73602143D01*
X208142857Y-73673571D01*
X208214286Y-73602143D01*
X208142857Y-73530714D01*
X208142857Y-73673571D01*
X207571428Y-72173571D02*
X206642857Y-72173571D01*
X207142857Y-72745000D01*
X206928571Y-72745000D01*
X206785714Y-72816429D01*
X206714285Y-72887857D01*
X206642857Y-73030714D01*
X206642857Y-73387857D01*
X206714285Y-73530714D01*
X206785714Y-73602143D01*
X206928571Y-73673571D01*
X207357143Y-73673571D01*
X207500000Y-73602143D01*
X207571428Y-73530714D01*
X206214286Y-72173571D02*
X205714286Y-73673571D01*
X205214286Y-72173571D01*
X209285714Y-74723571D02*
X208428571Y-74723571D01*
X208857142Y-76223571D02*
X208857142Y-74723571D01*
X207214285Y-76223571D02*
X207928571Y-76223571D01*
X207928571Y-74723571D01*
X205857142Y-76080714D02*
X205928571Y-76152143D01*
X206142857Y-76223571D01*
X206285714Y-76223571D01*
X206499999Y-76152143D01*
X206642857Y-76009286D01*
X206714285Y-75866429D01*
X206785714Y-75580714D01*
X206785714Y-75366429D01*
X206714285Y-75080714D01*
X206642857Y-74937857D01*
X206499999Y-74795000D01*
X206285714Y-74723571D01*
X206142857Y-74723571D01*
X205928571Y-74795000D01*
X205857142Y-74866429D01*
X264097142Y-114318571D02*
X264811428Y-114318571D01*
X264811428Y-112818571D01*
X263597142Y-113532857D02*
X263097142Y-113532857D01*
X262882856Y-114318571D02*
X263597142Y-114318571D01*
X263597142Y-112818571D01*
X262882856Y-112818571D01*
X262239999Y-114318571D02*
X262239999Y-112818571D01*
X261882856Y-112818571D01*
X261668571Y-112890000D01*
X261525713Y-113032857D01*
X261454285Y-113175714D01*
X261382856Y-113461429D01*
X261382856Y-113675714D01*
X261454285Y-113961429D01*
X261525713Y-114104286D01*
X261668571Y-114247143D01*
X261882856Y-114318571D01*
X262239999Y-114318571D01*
X258954285Y-113318571D02*
X258954285Y-114532857D01*
X259025714Y-114675714D01*
X259097142Y-114747143D01*
X259239999Y-114818571D01*
X259454285Y-114818571D01*
X259597142Y-114747143D01*
X258954285Y-114247143D02*
X259097142Y-114318571D01*
X259382856Y-114318571D01*
X259525714Y-114247143D01*
X259597142Y-114175714D01*
X259668571Y-114032857D01*
X259668571Y-113604286D01*
X259597142Y-113461429D01*
X259525714Y-113390000D01*
X259382856Y-113318571D01*
X259097142Y-113318571D01*
X258954285Y-113390000D01*
X258239999Y-114318571D02*
X258239999Y-113318571D01*
X258239999Y-113604286D02*
X258168571Y-113461429D01*
X258097142Y-113390000D01*
X257954285Y-113318571D01*
X257811428Y-113318571D01*
X257097142Y-114318571D02*
X257240000Y-114247143D01*
X257311428Y-114175714D01*
X257382857Y-114032857D01*
X257382857Y-113604286D01*
X257311428Y-113461429D01*
X257240000Y-113390000D01*
X257097142Y-113318571D01*
X256882857Y-113318571D01*
X256740000Y-113390000D01*
X256668571Y-113461429D01*
X256597142Y-113604286D01*
X256597142Y-114032857D01*
X256668571Y-114175714D01*
X256740000Y-114247143D01*
X256882857Y-114318571D01*
X257097142Y-114318571D01*
X255311428Y-113318571D02*
X255311428Y-114318571D01*
X255954285Y-113318571D02*
X255954285Y-114104286D01*
X255882857Y-114247143D01*
X255739999Y-114318571D01*
X255525714Y-114318571D01*
X255382857Y-114247143D01*
X255311428Y-114175714D01*
X254597142Y-113318571D02*
X254597142Y-114818571D01*
X254597142Y-113390000D02*
X254454285Y-113318571D01*
X254168571Y-113318571D01*
X254025714Y-113390000D01*
X253954285Y-113461429D01*
X253882856Y-113604286D01*
X253882856Y-114032857D01*
X253954285Y-114175714D01*
X254025714Y-114247143D01*
X254168571Y-114318571D01*
X254454285Y-114318571D01*
X254597142Y-114247143D01*
X251882856Y-114318571D02*
X252025714Y-114247143D01*
X252097142Y-114175714D01*
X252168571Y-114032857D01*
X252168571Y-113604286D01*
X252097142Y-113461429D01*
X252025714Y-113390000D01*
X251882856Y-113318571D01*
X251668571Y-113318571D01*
X251525714Y-113390000D01*
X251454285Y-113461429D01*
X251382856Y-113604286D01*
X251382856Y-114032857D01*
X251454285Y-114175714D01*
X251525714Y-114247143D01*
X251668571Y-114318571D01*
X251882856Y-114318571D01*
X250954285Y-113318571D02*
X250382856Y-113318571D01*
X250739999Y-114318571D02*
X250739999Y-113032857D01*
X250668571Y-112890000D01*
X250525713Y-112818571D01*
X250382856Y-112818571D01*
X248954285Y-112818571D02*
X248097142Y-112818571D01*
X248525713Y-114318571D02*
X248525713Y-112818571D01*
X246882856Y-114318571D02*
X247597142Y-114318571D01*
X247597142Y-112818571D01*
X245525713Y-114175714D02*
X245597142Y-114247143D01*
X245811428Y-114318571D01*
X245954285Y-114318571D01*
X246168570Y-114247143D01*
X246311428Y-114104286D01*
X246382856Y-113961429D01*
X246454285Y-113675714D01*
X246454285Y-113461429D01*
X246382856Y-113175714D01*
X246311428Y-113032857D01*
X246168570Y-112890000D01*
X245954285Y-112818571D01*
X245811428Y-112818571D01*
X245597142Y-112890000D01*
X245525713Y-112961429D01*
X244168570Y-112818571D02*
X244882856Y-112818571D01*
X244954285Y-113532857D01*
X244882856Y-113461429D01*
X244739999Y-113390000D01*
X244382856Y-113390000D01*
X244239999Y-113461429D01*
X244168570Y-113532857D01*
X244097142Y-113675714D01*
X244097142Y-114032857D01*
X244168570Y-114175714D01*
X244239999Y-114247143D01*
X244382856Y-114318571D01*
X244739999Y-114318571D01*
X244882856Y-114247143D01*
X244954285Y-114175714D01*
X264097142Y-93998571D02*
X264811428Y-93998571D01*
X264811428Y-92498571D01*
X263597142Y-93212857D02*
X263097142Y-93212857D01*
X262882856Y-93998571D02*
X263597142Y-93998571D01*
X263597142Y-92498571D01*
X262882856Y-92498571D01*
X262239999Y-93998571D02*
X262239999Y-92498571D01*
X261882856Y-92498571D01*
X261668571Y-92570000D01*
X261525713Y-92712857D01*
X261454285Y-92855714D01*
X261382856Y-93141429D01*
X261382856Y-93355714D01*
X261454285Y-93641429D01*
X261525713Y-93784286D01*
X261668571Y-93927143D01*
X261882856Y-93998571D01*
X262239999Y-93998571D01*
X258954285Y-92998571D02*
X258954285Y-94212857D01*
X259025714Y-94355714D01*
X259097142Y-94427143D01*
X259239999Y-94498571D01*
X259454285Y-94498571D01*
X259597142Y-94427143D01*
X258954285Y-93927143D02*
X259097142Y-93998571D01*
X259382856Y-93998571D01*
X259525714Y-93927143D01*
X259597142Y-93855714D01*
X259668571Y-93712857D01*
X259668571Y-93284286D01*
X259597142Y-93141429D01*
X259525714Y-93070000D01*
X259382856Y-92998571D01*
X259097142Y-92998571D01*
X258954285Y-93070000D01*
X258239999Y-93998571D02*
X258239999Y-92998571D01*
X258239999Y-93284286D02*
X258168571Y-93141429D01*
X258097142Y-93070000D01*
X257954285Y-92998571D01*
X257811428Y-92998571D01*
X257097142Y-93998571D02*
X257240000Y-93927143D01*
X257311428Y-93855714D01*
X257382857Y-93712857D01*
X257382857Y-93284286D01*
X257311428Y-93141429D01*
X257240000Y-93070000D01*
X257097142Y-92998571D01*
X256882857Y-92998571D01*
X256740000Y-93070000D01*
X256668571Y-93141429D01*
X256597142Y-93284286D01*
X256597142Y-93712857D01*
X256668571Y-93855714D01*
X256740000Y-93927143D01*
X256882857Y-93998571D01*
X257097142Y-93998571D01*
X255311428Y-92998571D02*
X255311428Y-93998571D01*
X255954285Y-92998571D02*
X255954285Y-93784286D01*
X255882857Y-93927143D01*
X255739999Y-93998571D01*
X255525714Y-93998571D01*
X255382857Y-93927143D01*
X255311428Y-93855714D01*
X254597142Y-92998571D02*
X254597142Y-94498571D01*
X254597142Y-93070000D02*
X254454285Y-92998571D01*
X254168571Y-92998571D01*
X254025714Y-93070000D01*
X253954285Y-93141429D01*
X253882856Y-93284286D01*
X253882856Y-93712857D01*
X253954285Y-93855714D01*
X254025714Y-93927143D01*
X254168571Y-93998571D01*
X254454285Y-93998571D01*
X254597142Y-93927143D01*
X251882856Y-93998571D02*
X252025714Y-93927143D01*
X252097142Y-93855714D01*
X252168571Y-93712857D01*
X252168571Y-93284286D01*
X252097142Y-93141429D01*
X252025714Y-93070000D01*
X251882856Y-92998571D01*
X251668571Y-92998571D01*
X251525714Y-93070000D01*
X251454285Y-93141429D01*
X251382856Y-93284286D01*
X251382856Y-93712857D01*
X251454285Y-93855714D01*
X251525714Y-93927143D01*
X251668571Y-93998571D01*
X251882856Y-93998571D01*
X250954285Y-92998571D02*
X250382856Y-92998571D01*
X250739999Y-93998571D02*
X250739999Y-92712857D01*
X250668571Y-92570000D01*
X250525713Y-92498571D01*
X250382856Y-92498571D01*
X248954285Y-92498571D02*
X248097142Y-92498571D01*
X248525713Y-93998571D02*
X248525713Y-92498571D01*
X246882856Y-93998571D02*
X247597142Y-93998571D01*
X247597142Y-92498571D01*
X245525713Y-93855714D02*
X245597142Y-93927143D01*
X245811428Y-93998571D01*
X245954285Y-93998571D01*
X246168570Y-93927143D01*
X246311428Y-93784286D01*
X246382856Y-93641429D01*
X246454285Y-93355714D01*
X246454285Y-93141429D01*
X246382856Y-92855714D01*
X246311428Y-92712857D01*
X246168570Y-92570000D01*
X245954285Y-92498571D01*
X245811428Y-92498571D01*
X245597142Y-92570000D01*
X245525713Y-92641429D01*
X244239999Y-92498571D02*
X244525713Y-92498571D01*
X244668570Y-92570000D01*
X244739999Y-92641429D01*
X244882856Y-92855714D01*
X244954285Y-93141429D01*
X244954285Y-93712857D01*
X244882856Y-93855714D01*
X244811428Y-93927143D01*
X244668570Y-93998571D01*
X244382856Y-93998571D01*
X244239999Y-93927143D01*
X244168570Y-93855714D01*
X244097142Y-93712857D01*
X244097142Y-93355714D01*
X244168570Y-93212857D01*
X244239999Y-93141429D01*
X244382856Y-93070000D01*
X244668570Y-93070000D01*
X244811428Y-93141429D01*
X244882856Y-93212857D01*
X244954285Y-93355714D01*
X264097142Y-74948571D02*
X264811428Y-74948571D01*
X264811428Y-73448571D01*
X263597142Y-74162857D02*
X263097142Y-74162857D01*
X262882856Y-74948571D02*
X263597142Y-74948571D01*
X263597142Y-73448571D01*
X262882856Y-73448571D01*
X262239999Y-74948571D02*
X262239999Y-73448571D01*
X261882856Y-73448571D01*
X261668571Y-73520000D01*
X261525713Y-73662857D01*
X261454285Y-73805714D01*
X261382856Y-74091429D01*
X261382856Y-74305714D01*
X261454285Y-74591429D01*
X261525713Y-74734286D01*
X261668571Y-74877143D01*
X261882856Y-74948571D01*
X262239999Y-74948571D01*
X258954285Y-73948571D02*
X258954285Y-75162857D01*
X259025714Y-75305714D01*
X259097142Y-75377143D01*
X259239999Y-75448571D01*
X259454285Y-75448571D01*
X259597142Y-75377143D01*
X258954285Y-74877143D02*
X259097142Y-74948571D01*
X259382856Y-74948571D01*
X259525714Y-74877143D01*
X259597142Y-74805714D01*
X259668571Y-74662857D01*
X259668571Y-74234286D01*
X259597142Y-74091429D01*
X259525714Y-74020000D01*
X259382856Y-73948571D01*
X259097142Y-73948571D01*
X258954285Y-74020000D01*
X258239999Y-74948571D02*
X258239999Y-73948571D01*
X258239999Y-74234286D02*
X258168571Y-74091429D01*
X258097142Y-74020000D01*
X257954285Y-73948571D01*
X257811428Y-73948571D01*
X257097142Y-74948571D02*
X257240000Y-74877143D01*
X257311428Y-74805714D01*
X257382857Y-74662857D01*
X257382857Y-74234286D01*
X257311428Y-74091429D01*
X257240000Y-74020000D01*
X257097142Y-73948571D01*
X256882857Y-73948571D01*
X256740000Y-74020000D01*
X256668571Y-74091429D01*
X256597142Y-74234286D01*
X256597142Y-74662857D01*
X256668571Y-74805714D01*
X256740000Y-74877143D01*
X256882857Y-74948571D01*
X257097142Y-74948571D01*
X255311428Y-73948571D02*
X255311428Y-74948571D01*
X255954285Y-73948571D02*
X255954285Y-74734286D01*
X255882857Y-74877143D01*
X255739999Y-74948571D01*
X255525714Y-74948571D01*
X255382857Y-74877143D01*
X255311428Y-74805714D01*
X254597142Y-73948571D02*
X254597142Y-75448571D01*
X254597142Y-74020000D02*
X254454285Y-73948571D01*
X254168571Y-73948571D01*
X254025714Y-74020000D01*
X253954285Y-74091429D01*
X253882856Y-74234286D01*
X253882856Y-74662857D01*
X253954285Y-74805714D01*
X254025714Y-74877143D01*
X254168571Y-74948571D01*
X254454285Y-74948571D01*
X254597142Y-74877143D01*
X251882856Y-74948571D02*
X252025714Y-74877143D01*
X252097142Y-74805714D01*
X252168571Y-74662857D01*
X252168571Y-74234286D01*
X252097142Y-74091429D01*
X252025714Y-74020000D01*
X251882856Y-73948571D01*
X251668571Y-73948571D01*
X251525714Y-74020000D01*
X251454285Y-74091429D01*
X251382856Y-74234286D01*
X251382856Y-74662857D01*
X251454285Y-74805714D01*
X251525714Y-74877143D01*
X251668571Y-74948571D01*
X251882856Y-74948571D01*
X250954285Y-73948571D02*
X250382856Y-73948571D01*
X250739999Y-74948571D02*
X250739999Y-73662857D01*
X250668571Y-73520000D01*
X250525713Y-73448571D01*
X250382856Y-73448571D01*
X248954285Y-73448571D02*
X248097142Y-73448571D01*
X248525713Y-74948571D02*
X248525713Y-73448571D01*
X246882856Y-74948571D02*
X247597142Y-74948571D01*
X247597142Y-73448571D01*
X245525713Y-74805714D02*
X245597142Y-74877143D01*
X245811428Y-74948571D01*
X245954285Y-74948571D01*
X246168570Y-74877143D01*
X246311428Y-74734286D01*
X246382856Y-74591429D01*
X246454285Y-74305714D01*
X246454285Y-74091429D01*
X246382856Y-73805714D01*
X246311428Y-73662857D01*
X246168570Y-73520000D01*
X245954285Y-73448571D01*
X245811428Y-73448571D01*
X245597142Y-73520000D01*
X245525713Y-73591429D01*
X245025713Y-73448571D02*
X244025713Y-73448571D01*
X244668570Y-74948571D01*
X264097142Y-54628571D02*
X264811428Y-54628571D01*
X264811428Y-53128571D01*
X263597142Y-53842857D02*
X263097142Y-53842857D01*
X262882856Y-54628571D02*
X263597142Y-54628571D01*
X263597142Y-53128571D01*
X262882856Y-53128571D01*
X262239999Y-54628571D02*
X262239999Y-53128571D01*
X261882856Y-53128571D01*
X261668571Y-53200000D01*
X261525713Y-53342857D01*
X261454285Y-53485714D01*
X261382856Y-53771429D01*
X261382856Y-53985714D01*
X261454285Y-54271429D01*
X261525713Y-54414286D01*
X261668571Y-54557143D01*
X261882856Y-54628571D01*
X262239999Y-54628571D01*
X258954285Y-53628571D02*
X258954285Y-54842857D01*
X259025714Y-54985714D01*
X259097142Y-55057143D01*
X259239999Y-55128571D01*
X259454285Y-55128571D01*
X259597142Y-55057143D01*
X258954285Y-54557143D02*
X259097142Y-54628571D01*
X259382856Y-54628571D01*
X259525714Y-54557143D01*
X259597142Y-54485714D01*
X259668571Y-54342857D01*
X259668571Y-53914286D01*
X259597142Y-53771429D01*
X259525714Y-53700000D01*
X259382856Y-53628571D01*
X259097142Y-53628571D01*
X258954285Y-53700000D01*
X258239999Y-54628571D02*
X258239999Y-53628571D01*
X258239999Y-53914286D02*
X258168571Y-53771429D01*
X258097142Y-53700000D01*
X257954285Y-53628571D01*
X257811428Y-53628571D01*
X257097142Y-54628571D02*
X257240000Y-54557143D01*
X257311428Y-54485714D01*
X257382857Y-54342857D01*
X257382857Y-53914286D01*
X257311428Y-53771429D01*
X257240000Y-53700000D01*
X257097142Y-53628571D01*
X256882857Y-53628571D01*
X256740000Y-53700000D01*
X256668571Y-53771429D01*
X256597142Y-53914286D01*
X256597142Y-54342857D01*
X256668571Y-54485714D01*
X256740000Y-54557143D01*
X256882857Y-54628571D01*
X257097142Y-54628571D01*
X255311428Y-53628571D02*
X255311428Y-54628571D01*
X255954285Y-53628571D02*
X255954285Y-54414286D01*
X255882857Y-54557143D01*
X255739999Y-54628571D01*
X255525714Y-54628571D01*
X255382857Y-54557143D01*
X255311428Y-54485714D01*
X254597142Y-53628571D02*
X254597142Y-55128571D01*
X254597142Y-53700000D02*
X254454285Y-53628571D01*
X254168571Y-53628571D01*
X254025714Y-53700000D01*
X253954285Y-53771429D01*
X253882856Y-53914286D01*
X253882856Y-54342857D01*
X253954285Y-54485714D01*
X254025714Y-54557143D01*
X254168571Y-54628571D01*
X254454285Y-54628571D01*
X254597142Y-54557143D01*
X251882856Y-54628571D02*
X252025714Y-54557143D01*
X252097142Y-54485714D01*
X252168571Y-54342857D01*
X252168571Y-53914286D01*
X252097142Y-53771429D01*
X252025714Y-53700000D01*
X251882856Y-53628571D01*
X251668571Y-53628571D01*
X251525714Y-53700000D01*
X251454285Y-53771429D01*
X251382856Y-53914286D01*
X251382856Y-54342857D01*
X251454285Y-54485714D01*
X251525714Y-54557143D01*
X251668571Y-54628571D01*
X251882856Y-54628571D01*
X250954285Y-53628571D02*
X250382856Y-53628571D01*
X250739999Y-54628571D02*
X250739999Y-53342857D01*
X250668571Y-53200000D01*
X250525713Y-53128571D01*
X250382856Y-53128571D01*
X248954285Y-53128571D02*
X248097142Y-53128571D01*
X248525713Y-54628571D02*
X248525713Y-53128571D01*
X246882856Y-54628571D02*
X247597142Y-54628571D01*
X247597142Y-53128571D01*
X245525713Y-54485714D02*
X245597142Y-54557143D01*
X245811428Y-54628571D01*
X245954285Y-54628571D01*
X246168570Y-54557143D01*
X246311428Y-54414286D01*
X246382856Y-54271429D01*
X246454285Y-53985714D01*
X246454285Y-53771429D01*
X246382856Y-53485714D01*
X246311428Y-53342857D01*
X246168570Y-53200000D01*
X245954285Y-53128571D01*
X245811428Y-53128571D01*
X245597142Y-53200000D01*
X245525713Y-53271429D01*
X244668570Y-53771429D02*
X244811428Y-53700000D01*
X244882856Y-53628571D01*
X244954285Y-53485714D01*
X244954285Y-53414286D01*
X244882856Y-53271429D01*
X244811428Y-53200000D01*
X244668570Y-53128571D01*
X244382856Y-53128571D01*
X244239999Y-53200000D01*
X244168570Y-53271429D01*
X244097142Y-53414286D01*
X244097142Y-53485714D01*
X244168570Y-53628571D01*
X244239999Y-53700000D01*
X244382856Y-53771429D01*
X244668570Y-53771429D01*
X244811428Y-53842857D01*
X244882856Y-53914286D01*
X244954285Y-54057143D01*
X244954285Y-54342857D01*
X244882856Y-54485714D01*
X244811428Y-54557143D01*
X244668570Y-54628571D01*
X244382856Y-54628571D01*
X244239999Y-54557143D01*
X244168570Y-54485714D01*
X244097142Y-54342857D01*
X244097142Y-54057143D01*
X244168570Y-53914286D01*
X244239999Y-53842857D01*
X244382856Y-53771429D01*
X184087142Y-114318571D02*
X184801428Y-114318571D01*
X184801428Y-112818571D01*
X183587142Y-113532857D02*
X183087142Y-113532857D01*
X182872856Y-114318571D02*
X183587142Y-114318571D01*
X183587142Y-112818571D01*
X182872856Y-112818571D01*
X182229999Y-114318571D02*
X182229999Y-112818571D01*
X181872856Y-112818571D01*
X181658571Y-112890000D01*
X181515713Y-113032857D01*
X181444285Y-113175714D01*
X181372856Y-113461429D01*
X181372856Y-113675714D01*
X181444285Y-113961429D01*
X181515713Y-114104286D01*
X181658571Y-114247143D01*
X181872856Y-114318571D01*
X182229999Y-114318571D01*
X178944285Y-113318571D02*
X178944285Y-114532857D01*
X179015714Y-114675714D01*
X179087142Y-114747143D01*
X179229999Y-114818571D01*
X179444285Y-114818571D01*
X179587142Y-114747143D01*
X178944285Y-114247143D02*
X179087142Y-114318571D01*
X179372856Y-114318571D01*
X179515714Y-114247143D01*
X179587142Y-114175714D01*
X179658571Y-114032857D01*
X179658571Y-113604286D01*
X179587142Y-113461429D01*
X179515714Y-113390000D01*
X179372856Y-113318571D01*
X179087142Y-113318571D01*
X178944285Y-113390000D01*
X178229999Y-114318571D02*
X178229999Y-113318571D01*
X178229999Y-113604286D02*
X178158571Y-113461429D01*
X178087142Y-113390000D01*
X177944285Y-113318571D01*
X177801428Y-113318571D01*
X177087142Y-114318571D02*
X177230000Y-114247143D01*
X177301428Y-114175714D01*
X177372857Y-114032857D01*
X177372857Y-113604286D01*
X177301428Y-113461429D01*
X177230000Y-113390000D01*
X177087142Y-113318571D01*
X176872857Y-113318571D01*
X176730000Y-113390000D01*
X176658571Y-113461429D01*
X176587142Y-113604286D01*
X176587142Y-114032857D01*
X176658571Y-114175714D01*
X176730000Y-114247143D01*
X176872857Y-114318571D01*
X177087142Y-114318571D01*
X175301428Y-113318571D02*
X175301428Y-114318571D01*
X175944285Y-113318571D02*
X175944285Y-114104286D01*
X175872857Y-114247143D01*
X175729999Y-114318571D01*
X175515714Y-114318571D01*
X175372857Y-114247143D01*
X175301428Y-114175714D01*
X174587142Y-113318571D02*
X174587142Y-114818571D01*
X174587142Y-113390000D02*
X174444285Y-113318571D01*
X174158571Y-113318571D01*
X174015714Y-113390000D01*
X173944285Y-113461429D01*
X173872856Y-113604286D01*
X173872856Y-114032857D01*
X173944285Y-114175714D01*
X174015714Y-114247143D01*
X174158571Y-114318571D01*
X174444285Y-114318571D01*
X174587142Y-114247143D01*
X171872856Y-114318571D02*
X172015714Y-114247143D01*
X172087142Y-114175714D01*
X172158571Y-114032857D01*
X172158571Y-113604286D01*
X172087142Y-113461429D01*
X172015714Y-113390000D01*
X171872856Y-113318571D01*
X171658571Y-113318571D01*
X171515714Y-113390000D01*
X171444285Y-113461429D01*
X171372856Y-113604286D01*
X171372856Y-114032857D01*
X171444285Y-114175714D01*
X171515714Y-114247143D01*
X171658571Y-114318571D01*
X171872856Y-114318571D01*
X170944285Y-113318571D02*
X170372856Y-113318571D01*
X170729999Y-114318571D02*
X170729999Y-113032857D01*
X170658571Y-112890000D01*
X170515713Y-112818571D01*
X170372856Y-112818571D01*
X168944285Y-112818571D02*
X168087142Y-112818571D01*
X168515713Y-114318571D02*
X168515713Y-112818571D01*
X166872856Y-114318571D02*
X167587142Y-114318571D01*
X167587142Y-112818571D01*
X165515713Y-114175714D02*
X165587142Y-114247143D01*
X165801428Y-114318571D01*
X165944285Y-114318571D01*
X166158570Y-114247143D01*
X166301428Y-114104286D01*
X166372856Y-113961429D01*
X166444285Y-113675714D01*
X166444285Y-113461429D01*
X166372856Y-113175714D01*
X166301428Y-113032857D01*
X166158570Y-112890000D01*
X165944285Y-112818571D01*
X165801428Y-112818571D01*
X165587142Y-112890000D01*
X165515713Y-112961429D01*
X164087142Y-114318571D02*
X164944285Y-114318571D01*
X164515713Y-114318571D02*
X164515713Y-112818571D01*
X164658570Y-113032857D01*
X164801428Y-113175714D01*
X164944285Y-113247143D01*
X184087142Y-93998571D02*
X184801428Y-93998571D01*
X184801428Y-92498571D01*
X183587142Y-93212857D02*
X183087142Y-93212857D01*
X182872856Y-93998571D02*
X183587142Y-93998571D01*
X183587142Y-92498571D01*
X182872856Y-92498571D01*
X182229999Y-93998571D02*
X182229999Y-92498571D01*
X181872856Y-92498571D01*
X181658571Y-92570000D01*
X181515713Y-92712857D01*
X181444285Y-92855714D01*
X181372856Y-93141429D01*
X181372856Y-93355714D01*
X181444285Y-93641429D01*
X181515713Y-93784286D01*
X181658571Y-93927143D01*
X181872856Y-93998571D01*
X182229999Y-93998571D01*
X178944285Y-92998571D02*
X178944285Y-94212857D01*
X179015714Y-94355714D01*
X179087142Y-94427143D01*
X179229999Y-94498571D01*
X179444285Y-94498571D01*
X179587142Y-94427143D01*
X178944285Y-93927143D02*
X179087142Y-93998571D01*
X179372856Y-93998571D01*
X179515714Y-93927143D01*
X179587142Y-93855714D01*
X179658571Y-93712857D01*
X179658571Y-93284286D01*
X179587142Y-93141429D01*
X179515714Y-93070000D01*
X179372856Y-92998571D01*
X179087142Y-92998571D01*
X178944285Y-93070000D01*
X178229999Y-93998571D02*
X178229999Y-92998571D01*
X178229999Y-93284286D02*
X178158571Y-93141429D01*
X178087142Y-93070000D01*
X177944285Y-92998571D01*
X177801428Y-92998571D01*
X177087142Y-93998571D02*
X177230000Y-93927143D01*
X177301428Y-93855714D01*
X177372857Y-93712857D01*
X177372857Y-93284286D01*
X177301428Y-93141429D01*
X177230000Y-93070000D01*
X177087142Y-92998571D01*
X176872857Y-92998571D01*
X176730000Y-93070000D01*
X176658571Y-93141429D01*
X176587142Y-93284286D01*
X176587142Y-93712857D01*
X176658571Y-93855714D01*
X176730000Y-93927143D01*
X176872857Y-93998571D01*
X177087142Y-93998571D01*
X175301428Y-92998571D02*
X175301428Y-93998571D01*
X175944285Y-92998571D02*
X175944285Y-93784286D01*
X175872857Y-93927143D01*
X175729999Y-93998571D01*
X175515714Y-93998571D01*
X175372857Y-93927143D01*
X175301428Y-93855714D01*
X174587142Y-92998571D02*
X174587142Y-94498571D01*
X174587142Y-93070000D02*
X174444285Y-92998571D01*
X174158571Y-92998571D01*
X174015714Y-93070000D01*
X173944285Y-93141429D01*
X173872856Y-93284286D01*
X173872856Y-93712857D01*
X173944285Y-93855714D01*
X174015714Y-93927143D01*
X174158571Y-93998571D01*
X174444285Y-93998571D01*
X174587142Y-93927143D01*
X171872856Y-93998571D02*
X172015714Y-93927143D01*
X172087142Y-93855714D01*
X172158571Y-93712857D01*
X172158571Y-93284286D01*
X172087142Y-93141429D01*
X172015714Y-93070000D01*
X171872856Y-92998571D01*
X171658571Y-92998571D01*
X171515714Y-93070000D01*
X171444285Y-93141429D01*
X171372856Y-93284286D01*
X171372856Y-93712857D01*
X171444285Y-93855714D01*
X171515714Y-93927143D01*
X171658571Y-93998571D01*
X171872856Y-93998571D01*
X170944285Y-92998571D02*
X170372856Y-92998571D01*
X170729999Y-93998571D02*
X170729999Y-92712857D01*
X170658571Y-92570000D01*
X170515713Y-92498571D01*
X170372856Y-92498571D01*
X168944285Y-92498571D02*
X168087142Y-92498571D01*
X168515713Y-93998571D02*
X168515713Y-92498571D01*
X166872856Y-93998571D02*
X167587142Y-93998571D01*
X167587142Y-92498571D01*
X165515713Y-93855714D02*
X165587142Y-93927143D01*
X165801428Y-93998571D01*
X165944285Y-93998571D01*
X166158570Y-93927143D01*
X166301428Y-93784286D01*
X166372856Y-93641429D01*
X166444285Y-93355714D01*
X166444285Y-93141429D01*
X166372856Y-92855714D01*
X166301428Y-92712857D01*
X166158570Y-92570000D01*
X165944285Y-92498571D01*
X165801428Y-92498571D01*
X165587142Y-92570000D01*
X165515713Y-92641429D01*
X164944285Y-92641429D02*
X164872856Y-92570000D01*
X164729999Y-92498571D01*
X164372856Y-92498571D01*
X164229999Y-92570000D01*
X164158570Y-92641429D01*
X164087142Y-92784286D01*
X164087142Y-92927143D01*
X164158570Y-93141429D01*
X165015713Y-93998571D01*
X164087142Y-93998571D01*
X184087142Y-74948571D02*
X184801428Y-74948571D01*
X184801428Y-73448571D01*
X183587142Y-74162857D02*
X183087142Y-74162857D01*
X182872856Y-74948571D02*
X183587142Y-74948571D01*
X183587142Y-73448571D01*
X182872856Y-73448571D01*
X182229999Y-74948571D02*
X182229999Y-73448571D01*
X181872856Y-73448571D01*
X181658571Y-73520000D01*
X181515713Y-73662857D01*
X181444285Y-73805714D01*
X181372856Y-74091429D01*
X181372856Y-74305714D01*
X181444285Y-74591429D01*
X181515713Y-74734286D01*
X181658571Y-74877143D01*
X181872856Y-74948571D01*
X182229999Y-74948571D01*
X178944285Y-73948571D02*
X178944285Y-75162857D01*
X179015714Y-75305714D01*
X179087142Y-75377143D01*
X179229999Y-75448571D01*
X179444285Y-75448571D01*
X179587142Y-75377143D01*
X178944285Y-74877143D02*
X179087142Y-74948571D01*
X179372856Y-74948571D01*
X179515714Y-74877143D01*
X179587142Y-74805714D01*
X179658571Y-74662857D01*
X179658571Y-74234286D01*
X179587142Y-74091429D01*
X179515714Y-74020000D01*
X179372856Y-73948571D01*
X179087142Y-73948571D01*
X178944285Y-74020000D01*
X178229999Y-74948571D02*
X178229999Y-73948571D01*
X178229999Y-74234286D02*
X178158571Y-74091429D01*
X178087142Y-74020000D01*
X177944285Y-73948571D01*
X177801428Y-73948571D01*
X177087142Y-74948571D02*
X177230000Y-74877143D01*
X177301428Y-74805714D01*
X177372857Y-74662857D01*
X177372857Y-74234286D01*
X177301428Y-74091429D01*
X177230000Y-74020000D01*
X177087142Y-73948571D01*
X176872857Y-73948571D01*
X176730000Y-74020000D01*
X176658571Y-74091429D01*
X176587142Y-74234286D01*
X176587142Y-74662857D01*
X176658571Y-74805714D01*
X176730000Y-74877143D01*
X176872857Y-74948571D01*
X177087142Y-74948571D01*
X175301428Y-73948571D02*
X175301428Y-74948571D01*
X175944285Y-73948571D02*
X175944285Y-74734286D01*
X175872857Y-74877143D01*
X175729999Y-74948571D01*
X175515714Y-74948571D01*
X175372857Y-74877143D01*
X175301428Y-74805714D01*
X174587142Y-73948571D02*
X174587142Y-75448571D01*
X174587142Y-74020000D02*
X174444285Y-73948571D01*
X174158571Y-73948571D01*
X174015714Y-74020000D01*
X173944285Y-74091429D01*
X173872856Y-74234286D01*
X173872856Y-74662857D01*
X173944285Y-74805714D01*
X174015714Y-74877143D01*
X174158571Y-74948571D01*
X174444285Y-74948571D01*
X174587142Y-74877143D01*
X171872856Y-74948571D02*
X172015714Y-74877143D01*
X172087142Y-74805714D01*
X172158571Y-74662857D01*
X172158571Y-74234286D01*
X172087142Y-74091429D01*
X172015714Y-74020000D01*
X171872856Y-73948571D01*
X171658571Y-73948571D01*
X171515714Y-74020000D01*
X171444285Y-74091429D01*
X171372856Y-74234286D01*
X171372856Y-74662857D01*
X171444285Y-74805714D01*
X171515714Y-74877143D01*
X171658571Y-74948571D01*
X171872856Y-74948571D01*
X170944285Y-73948571D02*
X170372856Y-73948571D01*
X170729999Y-74948571D02*
X170729999Y-73662857D01*
X170658571Y-73520000D01*
X170515713Y-73448571D01*
X170372856Y-73448571D01*
X168944285Y-73448571D02*
X168087142Y-73448571D01*
X168515713Y-74948571D02*
X168515713Y-73448571D01*
X166872856Y-74948571D02*
X167587142Y-74948571D01*
X167587142Y-73448571D01*
X165515713Y-74805714D02*
X165587142Y-74877143D01*
X165801428Y-74948571D01*
X165944285Y-74948571D01*
X166158570Y-74877143D01*
X166301428Y-74734286D01*
X166372856Y-74591429D01*
X166444285Y-74305714D01*
X166444285Y-74091429D01*
X166372856Y-73805714D01*
X166301428Y-73662857D01*
X166158570Y-73520000D01*
X165944285Y-73448571D01*
X165801428Y-73448571D01*
X165587142Y-73520000D01*
X165515713Y-73591429D01*
X165015713Y-73448571D02*
X164087142Y-73448571D01*
X164587142Y-74020000D01*
X164372856Y-74020000D01*
X164229999Y-74091429D01*
X164158570Y-74162857D01*
X164087142Y-74305714D01*
X164087142Y-74662857D01*
X164158570Y-74805714D01*
X164229999Y-74877143D01*
X164372856Y-74948571D01*
X164801428Y-74948571D01*
X164944285Y-74877143D01*
X165015713Y-74805714D01*
X184087142Y-54628571D02*
X184801428Y-54628571D01*
X184801428Y-53128571D01*
X183587142Y-53842857D02*
X183087142Y-53842857D01*
X182872856Y-54628571D02*
X183587142Y-54628571D01*
X183587142Y-53128571D01*
X182872856Y-53128571D01*
X182229999Y-54628571D02*
X182229999Y-53128571D01*
X181872856Y-53128571D01*
X181658571Y-53200000D01*
X181515713Y-53342857D01*
X181444285Y-53485714D01*
X181372856Y-53771429D01*
X181372856Y-53985714D01*
X181444285Y-54271429D01*
X181515713Y-54414286D01*
X181658571Y-54557143D01*
X181872856Y-54628571D01*
X182229999Y-54628571D01*
X178944285Y-53628571D02*
X178944285Y-54842857D01*
X179015714Y-54985714D01*
X179087142Y-55057143D01*
X179229999Y-55128571D01*
X179444285Y-55128571D01*
X179587142Y-55057143D01*
X178944285Y-54557143D02*
X179087142Y-54628571D01*
X179372856Y-54628571D01*
X179515714Y-54557143D01*
X179587142Y-54485714D01*
X179658571Y-54342857D01*
X179658571Y-53914286D01*
X179587142Y-53771429D01*
X179515714Y-53700000D01*
X179372856Y-53628571D01*
X179087142Y-53628571D01*
X178944285Y-53700000D01*
X178229999Y-54628571D02*
X178229999Y-53628571D01*
X178229999Y-53914286D02*
X178158571Y-53771429D01*
X178087142Y-53700000D01*
X177944285Y-53628571D01*
X177801428Y-53628571D01*
X177087142Y-54628571D02*
X177230000Y-54557143D01*
X177301428Y-54485714D01*
X177372857Y-54342857D01*
X177372857Y-53914286D01*
X177301428Y-53771429D01*
X177230000Y-53700000D01*
X177087142Y-53628571D01*
X176872857Y-53628571D01*
X176730000Y-53700000D01*
X176658571Y-53771429D01*
X176587142Y-53914286D01*
X176587142Y-54342857D01*
X176658571Y-54485714D01*
X176730000Y-54557143D01*
X176872857Y-54628571D01*
X177087142Y-54628571D01*
X175301428Y-53628571D02*
X175301428Y-54628571D01*
X175944285Y-53628571D02*
X175944285Y-54414286D01*
X175872857Y-54557143D01*
X175729999Y-54628571D01*
X175515714Y-54628571D01*
X175372857Y-54557143D01*
X175301428Y-54485714D01*
X174587142Y-53628571D02*
X174587142Y-55128571D01*
X174587142Y-53700000D02*
X174444285Y-53628571D01*
X174158571Y-53628571D01*
X174015714Y-53700000D01*
X173944285Y-53771429D01*
X173872856Y-53914286D01*
X173872856Y-54342857D01*
X173944285Y-54485714D01*
X174015714Y-54557143D01*
X174158571Y-54628571D01*
X174444285Y-54628571D01*
X174587142Y-54557143D01*
X171872856Y-54628571D02*
X172015714Y-54557143D01*
X172087142Y-54485714D01*
X172158571Y-54342857D01*
X172158571Y-53914286D01*
X172087142Y-53771429D01*
X172015714Y-53700000D01*
X171872856Y-53628571D01*
X171658571Y-53628571D01*
X171515714Y-53700000D01*
X171444285Y-53771429D01*
X171372856Y-53914286D01*
X171372856Y-54342857D01*
X171444285Y-54485714D01*
X171515714Y-54557143D01*
X171658571Y-54628571D01*
X171872856Y-54628571D01*
X170944285Y-53628571D02*
X170372856Y-53628571D01*
X170729999Y-54628571D02*
X170729999Y-53342857D01*
X170658571Y-53200000D01*
X170515713Y-53128571D01*
X170372856Y-53128571D01*
X168944285Y-53128571D02*
X168087142Y-53128571D01*
X168515713Y-54628571D02*
X168515713Y-53128571D01*
X166872856Y-54628571D02*
X167587142Y-54628571D01*
X167587142Y-53128571D01*
X165515713Y-54485714D02*
X165587142Y-54557143D01*
X165801428Y-54628571D01*
X165944285Y-54628571D01*
X166158570Y-54557143D01*
X166301428Y-54414286D01*
X166372856Y-54271429D01*
X166444285Y-53985714D01*
X166444285Y-53771429D01*
X166372856Y-53485714D01*
X166301428Y-53342857D01*
X166158570Y-53200000D01*
X165944285Y-53128571D01*
X165801428Y-53128571D01*
X165587142Y-53200000D01*
X165515713Y-53271429D01*
X164229999Y-53628571D02*
X164229999Y-54628571D01*
X164587142Y-53057143D02*
X164944285Y-54128571D01*
X164015713Y-54128571D01*
D12*
X127490000Y-62840000D02*
X297670000Y-62840000D01*
X216390000Y-122530000D02*
X216390000Y-123800000D01*
X216390000Y-46330000D02*
X216390000Y-43790000D01*
X216390000Y-103480000D02*
X216390000Y-122530000D01*
X287510000Y-103480000D02*
X297670000Y-103480000D01*
X126220000Y-103480000D02*
X287510000Y-103480000D01*
D13*
X118600000Y-71730000D02*
X118600000Y-92050000D01*
X113520000Y-89510000D02*
X113520000Y-71730000D01*
X118600000Y-71730000D02*
X113520000Y-71730000D01*
X118600000Y-92050000D02*
X116060000Y-92050000D01*
X114790000Y-92330000D02*
X113240000Y-92330000D01*
X116060000Y-92050000D02*
X116060000Y-89510000D01*
X116060000Y-89510000D02*
X113520000Y-89510000D01*
X113240000Y-92330000D02*
X113240000Y-90780000D01*
X293565000Y-113935000D02*
X293565000Y-115935000D01*
X295715000Y-115935000D02*
X295715000Y-113935000D01*
X293311000Y-93742000D02*
X293311000Y-95742000D01*
X295461000Y-95742000D02*
X295461000Y-93742000D01*
X293311000Y-73676000D02*
X293311000Y-75676000D01*
X295461000Y-75676000D02*
X295461000Y-73676000D01*
X295938520Y-51210720D02*
X295938520Y-49210720D01*
X293788520Y-49210720D02*
X293788520Y-51210720D01*
X284085000Y-118975000D02*
X284085000Y-118750000D01*
X288735000Y-118975000D02*
X288735000Y-118650000D01*
X288735000Y-108974200D02*
X288735000Y-109299200D01*
X284085000Y-108974200D02*
X284085000Y-109299200D01*
X284085000Y-118975000D02*
X288735000Y-118975000D01*
X284085000Y-108974200D02*
X288735000Y-108974200D01*
X284085000Y-118750000D02*
X283010000Y-118750000D01*
X284085000Y-99075000D02*
X284085000Y-98850000D01*
X288735000Y-99075000D02*
X288735000Y-98750000D01*
X288735000Y-89074200D02*
X288735000Y-89399200D01*
X284085000Y-89074200D02*
X284085000Y-89399200D01*
X284085000Y-99075000D02*
X288735000Y-99075000D01*
X284085000Y-89074200D02*
X288735000Y-89074200D01*
X284085000Y-98850000D02*
X283010000Y-98850000D01*
X284045000Y-78985000D02*
X284045000Y-78760000D01*
X288695000Y-78985000D02*
X288695000Y-78660000D01*
X288695000Y-68984200D02*
X288695000Y-69309200D01*
X284045000Y-68984200D02*
X284045000Y-69309200D01*
X284045000Y-78985000D02*
X288695000Y-78985000D01*
X284045000Y-68984200D02*
X288695000Y-68984200D01*
X284045000Y-78760000D02*
X282970000Y-78760000D01*
X284060000Y-58950000D02*
X284060000Y-58725000D01*
X288710000Y-58950000D02*
X288710000Y-58625000D01*
X288710000Y-48949200D02*
X288710000Y-49274200D01*
X284060000Y-48949200D02*
X284060000Y-49274200D01*
X284060000Y-58950000D02*
X288710000Y-58950000D01*
X284060000Y-48949200D02*
X288710000Y-48949200D01*
X284060000Y-58725000D02*
X282985000Y-58725000D01*
X228473000Y-83566000D02*
X224155000Y-83566000D01*
X228473000Y-89789000D02*
X224155000Y-89789000D01*
X224155000Y-89789000D02*
X224155000Y-82423000D01*
X224155000Y-82423000D02*
X228473000Y-82423000D01*
X228473000Y-82423000D02*
X228473000Y-89789000D01*
X209029000Y-84800000D02*
X204711000Y-84800000D01*
X209029000Y-91023000D02*
X204711000Y-91023000D01*
X204711000Y-91023000D02*
X204711000Y-83657000D01*
X204711000Y-83657000D02*
X209029000Y-83657000D01*
X209029000Y-83657000D02*
X209029000Y-91023000D01*
X215920000Y-87950000D02*
X215920000Y-88650000D01*
X217120000Y-88650000D02*
X217120000Y-87950000D01*
X116863095Y-93967381D02*
X116863095Y-92967381D01*
X116482142Y-92967381D01*
X116386904Y-93015000D01*
X116339285Y-93062619D01*
X116291666Y-93157857D01*
X116291666Y-93300714D01*
X116339285Y-93395952D01*
X116386904Y-93443571D01*
X116482142Y-93491190D01*
X116863095Y-93491190D01*
X115339285Y-93967381D02*
X115910714Y-93967381D01*
X115625000Y-93967381D02*
X115625000Y-92967381D01*
X115720238Y-93110238D01*
X115815476Y-93205476D01*
X115910714Y-93253095D01*
X294936666Y-119742381D02*
X295270000Y-119266190D01*
X295508095Y-119742381D02*
X295508095Y-118742381D01*
X295127142Y-118742381D01*
X295031904Y-118790000D01*
X294984285Y-118837619D01*
X294936666Y-118932857D01*
X294936666Y-119075714D01*
X294984285Y-119170952D01*
X295031904Y-119218571D01*
X295127142Y-119266190D01*
X295508095Y-119266190D01*
X294031904Y-118742381D02*
X294508095Y-118742381D01*
X294555714Y-119218571D01*
X294508095Y-119170952D01*
X294412857Y-119123333D01*
X294174761Y-119123333D01*
X294079523Y-119170952D01*
X294031904Y-119218571D01*
X293984285Y-119313810D01*
X293984285Y-119551905D01*
X294031904Y-119647143D01*
X294079523Y-119694762D01*
X294174761Y-119742381D01*
X294412857Y-119742381D01*
X294508095Y-119694762D01*
X294555714Y-119647143D01*
X297836666Y-97582381D02*
X298170000Y-97106190D01*
X298408095Y-97582381D02*
X298408095Y-96582381D01*
X298027142Y-96582381D01*
X297931904Y-96630000D01*
X297884285Y-96677619D01*
X297836666Y-96772857D01*
X297836666Y-96915714D01*
X297884285Y-97010952D01*
X297931904Y-97058571D01*
X298027142Y-97106190D01*
X298408095Y-97106190D01*
X296979523Y-96582381D02*
X297170000Y-96582381D01*
X297265238Y-96630000D01*
X297312857Y-96677619D01*
X297408095Y-96820476D01*
X297455714Y-97010952D01*
X297455714Y-97391905D01*
X297408095Y-97487143D01*
X297360476Y-97534762D01*
X297265238Y-97582381D01*
X297074761Y-97582381D01*
X296979523Y-97534762D01*
X296931904Y-97487143D01*
X296884285Y-97391905D01*
X296884285Y-97153810D01*
X296931904Y-97058571D01*
X296979523Y-97010952D01*
X297074761Y-96963333D01*
X297265238Y-96963333D01*
X297360476Y-97010952D01*
X297408095Y-97058571D01*
X297455714Y-97153810D01*
X297836666Y-78532381D02*
X298170000Y-78056190D01*
X298408095Y-78532381D02*
X298408095Y-77532381D01*
X298027142Y-77532381D01*
X297931904Y-77580000D01*
X297884285Y-77627619D01*
X297836666Y-77722857D01*
X297836666Y-77865714D01*
X297884285Y-77960952D01*
X297931904Y-78008571D01*
X298027142Y-78056190D01*
X298408095Y-78056190D01*
X297503333Y-77532381D02*
X296836666Y-77532381D01*
X297265238Y-78532381D01*
X294936666Y-46492381D02*
X295270000Y-46016190D01*
X295508095Y-46492381D02*
X295508095Y-45492381D01*
X295127142Y-45492381D01*
X295031904Y-45540000D01*
X294984285Y-45587619D01*
X294936666Y-45682857D01*
X294936666Y-45825714D01*
X294984285Y-45920952D01*
X295031904Y-45968571D01*
X295127142Y-46016190D01*
X295508095Y-46016190D01*
X294365238Y-45920952D02*
X294460476Y-45873333D01*
X294508095Y-45825714D01*
X294555714Y-45730476D01*
X294555714Y-45682857D01*
X294508095Y-45587619D01*
X294460476Y-45540000D01*
X294365238Y-45492381D01*
X294174761Y-45492381D01*
X294079523Y-45540000D01*
X294031904Y-45587619D01*
X293984285Y-45682857D01*
X293984285Y-45730476D01*
X294031904Y-45825714D01*
X294079523Y-45873333D01*
X294174761Y-45920952D01*
X294365238Y-45920952D01*
X294460476Y-45968571D01*
X294508095Y-46016190D01*
X294555714Y-46111429D01*
X294555714Y-46301905D01*
X294508095Y-46397143D01*
X294460476Y-46444762D01*
X294365238Y-46492381D01*
X294174761Y-46492381D01*
X294079523Y-46444762D01*
X294031904Y-46397143D01*
X293984285Y-46301905D01*
X293984285Y-46111429D01*
X294031904Y-46016190D01*
X294079523Y-45968571D01*
X294174761Y-45920952D01*
X288436667Y-120742381D02*
X287865238Y-120742381D01*
X288150953Y-121742381D02*
X288150953Y-120742381D01*
X287055714Y-121742381D02*
X287531905Y-121742381D01*
X287531905Y-120742381D01*
X286150952Y-121647143D02*
X286198571Y-121694762D01*
X286341428Y-121742381D01*
X286436666Y-121742381D01*
X286579524Y-121694762D01*
X286674762Y-121599524D01*
X286722381Y-121504286D01*
X286770000Y-121313810D01*
X286770000Y-121170952D01*
X286722381Y-120980476D01*
X286674762Y-120885238D01*
X286579524Y-120790000D01*
X286436666Y-120742381D01*
X286341428Y-120742381D01*
X286198571Y-120790000D01*
X286150952Y-120837619D01*
X285246190Y-120742381D02*
X285722381Y-120742381D01*
X285770000Y-121218571D01*
X285722381Y-121170952D01*
X285627143Y-121123333D01*
X285389047Y-121123333D01*
X285293809Y-121170952D01*
X285246190Y-121218571D01*
X285198571Y-121313810D01*
X285198571Y-121551905D01*
X285246190Y-121647143D01*
X285293809Y-121694762D01*
X285389047Y-121742381D01*
X285627143Y-121742381D01*
X285722381Y-121694762D01*
X285770000Y-121647143D01*
X287936667Y-100492381D02*
X287365238Y-100492381D01*
X287650953Y-101492381D02*
X287650953Y-100492381D01*
X286555714Y-101492381D02*
X287031905Y-101492381D01*
X287031905Y-100492381D01*
X285650952Y-101397143D02*
X285698571Y-101444762D01*
X285841428Y-101492381D01*
X285936666Y-101492381D01*
X286079524Y-101444762D01*
X286174762Y-101349524D01*
X286222381Y-101254286D01*
X286270000Y-101063810D01*
X286270000Y-100920952D01*
X286222381Y-100730476D01*
X286174762Y-100635238D01*
X286079524Y-100540000D01*
X285936666Y-100492381D01*
X285841428Y-100492381D01*
X285698571Y-100540000D01*
X285650952Y-100587619D01*
X284793809Y-100492381D02*
X284984286Y-100492381D01*
X285079524Y-100540000D01*
X285127143Y-100587619D01*
X285222381Y-100730476D01*
X285270000Y-100920952D01*
X285270000Y-101301905D01*
X285222381Y-101397143D01*
X285174762Y-101444762D01*
X285079524Y-101492381D01*
X284889047Y-101492381D01*
X284793809Y-101444762D01*
X284746190Y-101397143D01*
X284698571Y-101301905D01*
X284698571Y-101063810D01*
X284746190Y-100968571D01*
X284793809Y-100920952D01*
X284889047Y-100873333D01*
X285079524Y-100873333D01*
X285174762Y-100920952D01*
X285222381Y-100968571D01*
X285270000Y-101063810D01*
X286936667Y-80242381D02*
X286365238Y-80242381D01*
X286650953Y-81242381D02*
X286650953Y-80242381D01*
X285555714Y-81242381D02*
X286031905Y-81242381D01*
X286031905Y-80242381D01*
X284650952Y-81147143D02*
X284698571Y-81194762D01*
X284841428Y-81242381D01*
X284936666Y-81242381D01*
X285079524Y-81194762D01*
X285174762Y-81099524D01*
X285222381Y-81004286D01*
X285270000Y-80813810D01*
X285270000Y-80670952D01*
X285222381Y-80480476D01*
X285174762Y-80385238D01*
X285079524Y-80290000D01*
X284936666Y-80242381D01*
X284841428Y-80242381D01*
X284698571Y-80290000D01*
X284650952Y-80337619D01*
X284317619Y-80242381D02*
X283650952Y-80242381D01*
X284079524Y-81242381D01*
X287936667Y-60992381D02*
X287365238Y-60992381D01*
X287650953Y-61992381D02*
X287650953Y-60992381D01*
X286555714Y-61992381D02*
X287031905Y-61992381D01*
X287031905Y-60992381D01*
X285650952Y-61897143D02*
X285698571Y-61944762D01*
X285841428Y-61992381D01*
X285936666Y-61992381D01*
X286079524Y-61944762D01*
X286174762Y-61849524D01*
X286222381Y-61754286D01*
X286270000Y-61563810D01*
X286270000Y-61420952D01*
X286222381Y-61230476D01*
X286174762Y-61135238D01*
X286079524Y-61040000D01*
X285936666Y-60992381D01*
X285841428Y-60992381D01*
X285698571Y-61040000D01*
X285650952Y-61087619D01*
X285079524Y-61420952D02*
X285174762Y-61373333D01*
X285222381Y-61325714D01*
X285270000Y-61230476D01*
X285270000Y-61182857D01*
X285222381Y-61087619D01*
X285174762Y-61040000D01*
X285079524Y-60992381D01*
X284889047Y-60992381D01*
X284793809Y-61040000D01*
X284746190Y-61087619D01*
X284698571Y-61182857D01*
X284698571Y-61230476D01*
X284746190Y-61325714D01*
X284793809Y-61373333D01*
X284889047Y-61420952D01*
X285079524Y-61420952D01*
X285174762Y-61468571D01*
X285222381Y-61516190D01*
X285270000Y-61611429D01*
X285270000Y-61801905D01*
X285222381Y-61897143D01*
X285174762Y-61944762D01*
X285079524Y-61992381D01*
X284889047Y-61992381D01*
X284793809Y-61944762D01*
X284746190Y-61897143D01*
X284698571Y-61801905D01*
X284698571Y-61611429D01*
X284746190Y-61516190D01*
X284793809Y-61468571D01*
X284889047Y-61420952D01*
X230436666Y-85397143D02*
X230484285Y-85444762D01*
X230627142Y-85492381D01*
X230722380Y-85492381D01*
X230865238Y-85444762D01*
X230960476Y-85349524D01*
X231008095Y-85254286D01*
X231055714Y-85063810D01*
X231055714Y-84920952D01*
X231008095Y-84730476D01*
X230960476Y-84635238D01*
X230865238Y-84540000D01*
X230722380Y-84492381D01*
X230627142Y-84492381D01*
X230484285Y-84540000D01*
X230436666Y-84587619D01*
X230055714Y-84587619D02*
X230008095Y-84540000D01*
X229912857Y-84492381D01*
X229674761Y-84492381D01*
X229579523Y-84540000D01*
X229531904Y-84587619D01*
X229484285Y-84682857D01*
X229484285Y-84778095D01*
X229531904Y-84920952D01*
X230103333Y-85492381D01*
X229484285Y-85492381D01*
X203162857Y-84647143D02*
X203210476Y-84694762D01*
X203353333Y-84742381D01*
X203448571Y-84742381D01*
X203591429Y-84694762D01*
X203686667Y-84599524D01*
X203734286Y-84504286D01*
X203781905Y-84313810D01*
X203781905Y-84170952D01*
X203734286Y-83980476D01*
X203686667Y-83885238D01*
X203591429Y-83790000D01*
X203448571Y-83742381D01*
X203353333Y-83742381D01*
X203210476Y-83790000D01*
X203162857Y-83837619D01*
X202210476Y-84742381D02*
X202781905Y-84742381D01*
X202496191Y-84742381D02*
X202496191Y-83742381D01*
X202591429Y-83885238D01*
X202686667Y-83980476D01*
X202781905Y-84028095D01*
X201258095Y-84742381D02*
X201829524Y-84742381D01*
X201543810Y-84742381D02*
X201543810Y-83742381D01*
X201639048Y-83885238D01*
X201734286Y-83980476D01*
X201829524Y-84028095D01*
X218877143Y-88123334D02*
X218924762Y-88075715D01*
X218972381Y-87932858D01*
X218972381Y-87837620D01*
X218924762Y-87694762D01*
X218829524Y-87599524D01*
X218734286Y-87551905D01*
X218543810Y-87504286D01*
X218400952Y-87504286D01*
X218210476Y-87551905D01*
X218115238Y-87599524D01*
X218020000Y-87694762D01*
X217972381Y-87837620D01*
X217972381Y-87932858D01*
X218020000Y-88075715D01*
X218067619Y-88123334D01*
X218972381Y-89075715D02*
X218972381Y-88504286D01*
X218972381Y-88790000D02*
X217972381Y-88790000D01*
X218115238Y-88694762D01*
X218210476Y-88599524D01*
X218258095Y-88504286D01*
%LPC*%
D14*
X211370000Y-99950000D03*
X211370000Y-97410000D03*
X211370000Y-49950000D03*
X211370000Y-47410000D03*
X211370000Y-59950000D03*
X211370000Y-57410000D03*
X211370000Y-69950000D03*
X211370000Y-67410000D03*
X211370000Y-79950000D03*
X211370000Y-77410000D03*
X291370000Y-99950000D03*
X291370000Y-97410000D03*
X231370000Y-79950000D03*
X231370000Y-77410000D03*
D15*
X114790000Y-90780000D03*
D16*
X117330000Y-90780000D03*
X114790000Y-88240000D03*
X117330000Y-88240000D03*
X114790000Y-85700000D03*
X117330000Y-85700000D03*
X114790000Y-83160000D03*
X117330000Y-83160000D03*
X114790000Y-80620000D03*
X117330000Y-80620000D03*
X114790000Y-78080000D03*
X117330000Y-78080000D03*
X114790000Y-75540000D03*
X117330000Y-75540000D03*
X114790000Y-73000000D03*
X117330000Y-73000000D03*
D14*
X151370000Y-109950000D03*
X151370000Y-107410000D03*
X161370000Y-99950000D03*
X161370000Y-97410000D03*
X181370000Y-119950000D03*
X181370000Y-117410000D03*
X171370000Y-119950000D03*
X171370000Y-117410000D03*
X151370000Y-119950000D03*
X151370000Y-117410000D03*
X141370000Y-119950000D03*
X141370000Y-117410000D03*
X181370000Y-109950000D03*
X181370000Y-107410000D03*
X161370000Y-119950000D03*
X161370000Y-117410000D03*
X191370000Y-119950000D03*
X191370000Y-117410000D03*
X201370000Y-119950000D03*
X201370000Y-117410000D03*
X211370000Y-119950000D03*
X211370000Y-117410000D03*
X141370000Y-109950000D03*
X141370000Y-107410000D03*
X161370000Y-109950000D03*
X161370000Y-107410000D03*
X171370000Y-109950000D03*
X171370000Y-107410000D03*
X191370000Y-109950000D03*
X191370000Y-107410000D03*
X201370000Y-109950000D03*
X201370000Y-107410000D03*
X211370000Y-109950000D03*
X211370000Y-107410000D03*
X141370000Y-99950000D03*
X141370000Y-97410000D03*
X151370000Y-99950000D03*
X151370000Y-97410000D03*
X171370000Y-99950000D03*
X171370000Y-97410000D03*
X181370000Y-99950000D03*
X181370000Y-97410000D03*
X191370000Y-99950000D03*
X191370000Y-97410000D03*
X201370000Y-99950000D03*
X201370000Y-97410000D03*
X141370000Y-89950000D03*
X141370000Y-87410000D03*
X151370000Y-89950000D03*
X151370000Y-87410000D03*
X161370000Y-89950000D03*
X161370000Y-87410000D03*
X171370000Y-89950000D03*
X171370000Y-87410000D03*
X181370000Y-89950000D03*
X181370000Y-87410000D03*
X191370000Y-89950000D03*
X191370000Y-87410000D03*
X201370000Y-89950000D03*
X201370000Y-87410000D03*
X211370000Y-89950000D03*
X211370000Y-87410000D03*
X141370000Y-79950000D03*
X141370000Y-77410000D03*
X151370000Y-79950000D03*
X151370000Y-77410000D03*
X161370000Y-79950000D03*
X161370000Y-77410000D03*
X171370000Y-79950000D03*
X171370000Y-77410000D03*
X181370000Y-79950000D03*
X181370000Y-77410000D03*
X191370000Y-79950000D03*
X191370000Y-77410000D03*
X201370000Y-79950000D03*
X201370000Y-77410000D03*
X141370000Y-69950000D03*
X141370000Y-67410000D03*
X151370000Y-69950000D03*
X151370000Y-67410000D03*
X161370000Y-69950000D03*
X161370000Y-67410000D03*
X171370000Y-69950000D03*
X171370000Y-67410000D03*
X181370000Y-69950000D03*
X181370000Y-67410000D03*
X191370000Y-69950000D03*
X191370000Y-67410000D03*
X201370000Y-69950000D03*
X201370000Y-67410000D03*
X141370000Y-59950000D03*
X141370000Y-57410000D03*
X151370000Y-59950000D03*
X151370000Y-57410000D03*
X161370000Y-59950000D03*
X161370000Y-57410000D03*
X171370000Y-59950000D03*
X171370000Y-57410000D03*
X181370000Y-59950000D03*
X181370000Y-57410000D03*
X191370000Y-59950000D03*
X191370000Y-57410000D03*
X201370000Y-59950000D03*
X201370000Y-57410000D03*
X141370000Y-49950000D03*
X141370000Y-47410000D03*
X151370000Y-49950000D03*
X151370000Y-47410000D03*
X161370000Y-49950000D03*
X161370000Y-47410000D03*
X171370000Y-49950000D03*
X171370000Y-47410000D03*
X181370000Y-49950000D03*
X181370000Y-47410000D03*
X191370000Y-49950000D03*
X191370000Y-47410000D03*
X201370000Y-49950000D03*
X201370000Y-47410000D03*
X221370000Y-119950000D03*
X221370000Y-117410000D03*
X231370000Y-119950000D03*
X231370000Y-117410000D03*
X241370000Y-119950000D03*
X241370000Y-117410000D03*
X251370000Y-119950000D03*
X251370000Y-117410000D03*
X261370000Y-119950000D03*
X261370000Y-117410000D03*
X271370000Y-119950000D03*
X271370000Y-117410000D03*
X281370000Y-119950000D03*
X281370000Y-117410000D03*
X291370000Y-119950000D03*
X291370000Y-117410000D03*
X221370000Y-109950000D03*
X221370000Y-107410000D03*
X231370000Y-109950000D03*
X231370000Y-107410000D03*
X241370000Y-109950000D03*
X241370000Y-107410000D03*
X251370000Y-109950000D03*
X251370000Y-107410000D03*
X261370000Y-109950000D03*
X261370000Y-107410000D03*
X271370000Y-109950000D03*
X271370000Y-107410000D03*
X281370000Y-109950000D03*
X281370000Y-107410000D03*
X291370000Y-109950000D03*
X291370000Y-107410000D03*
X221370000Y-99950000D03*
X221370000Y-97410000D03*
X231370000Y-99950000D03*
X231370000Y-97410000D03*
X241370000Y-99950000D03*
X241370000Y-97410000D03*
X251370000Y-99950000D03*
X251370000Y-97410000D03*
X261370000Y-99950000D03*
X261370000Y-97410000D03*
X271370000Y-99950000D03*
X271370000Y-97410000D03*
X281370000Y-99950000D03*
X281370000Y-97410000D03*
X221370000Y-89950000D03*
X221370000Y-87410000D03*
X231370000Y-89950000D03*
X231370000Y-87410000D03*
X241370000Y-89950000D03*
X241370000Y-87410000D03*
X251370000Y-89950000D03*
X251370000Y-87410000D03*
X261370000Y-89950000D03*
X261370000Y-87410000D03*
X271370000Y-89950000D03*
X271370000Y-87410000D03*
X281370000Y-89950000D03*
X281370000Y-87410000D03*
X291370000Y-89950000D03*
X291370000Y-87410000D03*
X221370000Y-79950000D03*
X221370000Y-77410000D03*
X241370000Y-79950000D03*
X241370000Y-77410000D03*
X251370000Y-79950000D03*
X251370000Y-77410000D03*
X261370000Y-79950000D03*
X261370000Y-77410000D03*
X271370000Y-79950000D03*
X271370000Y-77410000D03*
X281370000Y-79950000D03*
X281370000Y-77410000D03*
X291370000Y-79950000D03*
X291370000Y-77410000D03*
X221370000Y-69950000D03*
X221370000Y-67410000D03*
X231370000Y-69950000D03*
X231370000Y-67410000D03*
X241370000Y-69950000D03*
X241370000Y-67410000D03*
X251370000Y-69950000D03*
X251370000Y-67410000D03*
X261370000Y-69950000D03*
X261370000Y-67410000D03*
X271370000Y-69950000D03*
X271370000Y-67410000D03*
X281370000Y-69950000D03*
X281370000Y-67410000D03*
X291370000Y-69950000D03*
X291370000Y-67410000D03*
X221370000Y-59950000D03*
X221370000Y-57410000D03*
X231370000Y-59950000D03*
X231370000Y-57410000D03*
X241370000Y-59950000D03*
X241370000Y-57410000D03*
X251370000Y-59950000D03*
X251370000Y-57410000D03*
X261370000Y-59950000D03*
X261370000Y-57410000D03*
X271370000Y-59950000D03*
X271370000Y-57410000D03*
X281370000Y-59950000D03*
X281370000Y-57410000D03*
X291370000Y-59950000D03*
X291370000Y-57410000D03*
X221370000Y-49950000D03*
X221370000Y-47410000D03*
X231370000Y-49950000D03*
X231370000Y-47410000D03*
X241370000Y-49950000D03*
X241370000Y-47410000D03*
X251370000Y-49950000D03*
X251370000Y-47410000D03*
X261370000Y-49950000D03*
X261370000Y-47410000D03*
X271370000Y-49950000D03*
X271370000Y-47410000D03*
X281370000Y-49950000D03*
X281370000Y-47410000D03*
X291370000Y-49950000D03*
X291370000Y-47410000D03*
D17*
X294640000Y-116935000D03*
X294640000Y-112935000D03*
X294386000Y-96742000D03*
X294386000Y-92742000D03*
X294386000Y-76676000D03*
X294386000Y-72676000D03*
X294863520Y-48210720D03*
X294863520Y-52210720D03*
D18*
X131652000Y-112858750D03*
X131652000Y-110699750D03*
X131652000Y-111756000D03*
X131652000Y-107438000D03*
X131652000Y-106381750D03*
X131652000Y-108540750D03*
X131652000Y-109597000D03*
X130763000Y-109597000D03*
X130763000Y-108540750D03*
X130763000Y-106381750D03*
X130763000Y-107438000D03*
X130763000Y-111756000D03*
X130763000Y-110699750D03*
X130763000Y-112858750D03*
X132541000Y-112858750D03*
X132541000Y-110699750D03*
X132541000Y-111756000D03*
X132541000Y-107438000D03*
X132541000Y-106381750D03*
X132541000Y-108540750D03*
X132541000Y-109597000D03*
X133430000Y-109597000D03*
X133430000Y-108540750D03*
X133430000Y-106381750D03*
X133430000Y-107438000D03*
X133430000Y-111756000D03*
X133430000Y-110699750D03*
X133430000Y-112858750D03*
X131652000Y-92838750D03*
X131652000Y-90679750D03*
X131652000Y-91736000D03*
X131652000Y-87418000D03*
X131652000Y-86361750D03*
X131652000Y-88520750D03*
X131652000Y-89577000D03*
X130763000Y-89577000D03*
X130763000Y-88520750D03*
X130763000Y-86361750D03*
X130763000Y-87418000D03*
X130763000Y-91736000D03*
X130763000Y-90679750D03*
X130763000Y-92838750D03*
X132541000Y-92838750D03*
X132541000Y-90679750D03*
X132541000Y-91736000D03*
X132541000Y-87418000D03*
X132541000Y-86361750D03*
X132541000Y-88520750D03*
X132541000Y-89577000D03*
X133430000Y-89577000D03*
X133430000Y-88520750D03*
X133430000Y-86361750D03*
X133430000Y-87418000D03*
X133430000Y-91736000D03*
X133430000Y-90679750D03*
X133430000Y-92838750D03*
X131652000Y-52862250D03*
X131652000Y-50703250D03*
X131652000Y-51759500D03*
X131652000Y-47441500D03*
X131652000Y-46385250D03*
X131652000Y-48544250D03*
X131652000Y-49600500D03*
X130763000Y-49600500D03*
X130763000Y-48544250D03*
X130763000Y-46385250D03*
X130763000Y-47441500D03*
X130763000Y-51759500D03*
X130763000Y-50703250D03*
X130763000Y-52862250D03*
X132541000Y-52862250D03*
X132541000Y-50703250D03*
X132541000Y-51759500D03*
X132541000Y-47441500D03*
X132541000Y-46385250D03*
X132541000Y-48544250D03*
X132541000Y-49600500D03*
X133430000Y-49600500D03*
X133430000Y-48544250D03*
X133430000Y-46385250D03*
X133430000Y-47441500D03*
X133430000Y-51759500D03*
X133430000Y-50703250D03*
X133430000Y-52862250D03*
X286838000Y-117268750D03*
X286838000Y-115109750D03*
X286838000Y-116166000D03*
X286838000Y-111848000D03*
X286838000Y-110791750D03*
X286838000Y-112950750D03*
X286838000Y-114007000D03*
X287727000Y-114007000D03*
X287727000Y-112950750D03*
X287727000Y-110791750D03*
X287727000Y-111848000D03*
X287727000Y-116166000D03*
X287727000Y-115109750D03*
X287727000Y-117268750D03*
X285949000Y-117268750D03*
X285949000Y-115109750D03*
X285949000Y-116166000D03*
X285949000Y-111848000D03*
X285949000Y-110791750D03*
X285949000Y-112950750D03*
X285949000Y-114007000D03*
X285060000Y-114007000D03*
X285060000Y-112950750D03*
X285060000Y-110791750D03*
X285060000Y-111848000D03*
X285060000Y-116166000D03*
X285060000Y-115109750D03*
X285060000Y-117268750D03*
D19*
X283560000Y-118225000D03*
X283560000Y-117575000D03*
X283560000Y-116925000D03*
X283560000Y-116275000D03*
X283560000Y-115625000D03*
X283560000Y-114975000D03*
X283560000Y-114325000D03*
X283560000Y-113675000D03*
X283560000Y-113025000D03*
X283560000Y-112375000D03*
X283560000Y-111725000D03*
X283560000Y-111075000D03*
X283560000Y-110425000D03*
X283560000Y-109775000D03*
X289260000Y-109775000D03*
X289260000Y-110425000D03*
X289260000Y-111075000D03*
X289260000Y-111725000D03*
X289260000Y-112375000D03*
X289260000Y-113025000D03*
X289260000Y-113675000D03*
X289260000Y-114325000D03*
X289260000Y-114975000D03*
X289260000Y-115625000D03*
X289260000Y-116275000D03*
X289260000Y-116925000D03*
X289260000Y-117575000D03*
X289260000Y-118225000D03*
D18*
X286838000Y-97368750D03*
X286838000Y-95209750D03*
X286838000Y-96266000D03*
X286838000Y-91948000D03*
X286838000Y-90891750D03*
X286838000Y-93050750D03*
X286838000Y-94107000D03*
X287727000Y-94107000D03*
X287727000Y-93050750D03*
X287727000Y-90891750D03*
X287727000Y-91948000D03*
X287727000Y-96266000D03*
X287727000Y-95209750D03*
X287727000Y-97368750D03*
X285949000Y-97368750D03*
X285949000Y-95209750D03*
X285949000Y-96266000D03*
X285949000Y-91948000D03*
X285949000Y-90891750D03*
X285949000Y-93050750D03*
X285949000Y-94107000D03*
X285060000Y-94107000D03*
X285060000Y-93050750D03*
X285060000Y-90891750D03*
X285060000Y-91948000D03*
X285060000Y-96266000D03*
X285060000Y-95209750D03*
X285060000Y-97368750D03*
D19*
X283560000Y-98325000D03*
X283560000Y-97675000D03*
X283560000Y-97025000D03*
X283560000Y-96375000D03*
X283560000Y-95725000D03*
X283560000Y-95075000D03*
X283560000Y-94425000D03*
X283560000Y-93775000D03*
X283560000Y-93125000D03*
X283560000Y-92475000D03*
X283560000Y-91825000D03*
X283560000Y-91175000D03*
X283560000Y-90525000D03*
X283560000Y-89875000D03*
X289260000Y-89875000D03*
X289260000Y-90525000D03*
X289260000Y-91175000D03*
X289260000Y-91825000D03*
X289260000Y-92475000D03*
X289260000Y-93125000D03*
X289260000Y-93775000D03*
X289260000Y-94425000D03*
X289260000Y-95075000D03*
X289260000Y-95725000D03*
X289260000Y-96375000D03*
X289260000Y-97025000D03*
X289260000Y-97675000D03*
X289260000Y-98325000D03*
D18*
X286798000Y-77278750D03*
X286798000Y-75119750D03*
X286798000Y-76176000D03*
X286798000Y-71858000D03*
X286798000Y-70801750D03*
X286798000Y-72960750D03*
X286798000Y-74017000D03*
X287687000Y-74017000D03*
X287687000Y-72960750D03*
X287687000Y-70801750D03*
X287687000Y-71858000D03*
X287687000Y-76176000D03*
X287687000Y-75119750D03*
X287687000Y-77278750D03*
X285909000Y-77278750D03*
X285909000Y-75119750D03*
X285909000Y-76176000D03*
X285909000Y-71858000D03*
X285909000Y-70801750D03*
X285909000Y-72960750D03*
X285909000Y-74017000D03*
X285020000Y-74017000D03*
X285020000Y-72960750D03*
X285020000Y-70801750D03*
X285020000Y-71858000D03*
X285020000Y-76176000D03*
X285020000Y-75119750D03*
X285020000Y-77278750D03*
D19*
X283520000Y-78235000D03*
X283520000Y-77585000D03*
X283520000Y-76935000D03*
X283520000Y-76285000D03*
X283520000Y-75635000D03*
X283520000Y-74985000D03*
X283520000Y-74335000D03*
X283520000Y-73685000D03*
X283520000Y-73035000D03*
X283520000Y-72385000D03*
X283520000Y-71735000D03*
X283520000Y-71085000D03*
X283520000Y-70435000D03*
X283520000Y-69785000D03*
X289220000Y-69785000D03*
X289220000Y-70435000D03*
X289220000Y-71085000D03*
X289220000Y-71735000D03*
X289220000Y-72385000D03*
X289220000Y-73035000D03*
X289220000Y-73685000D03*
X289220000Y-74335000D03*
X289220000Y-74985000D03*
X289220000Y-75635000D03*
X289220000Y-76285000D03*
X289220000Y-76935000D03*
X289220000Y-77585000D03*
X289220000Y-78235000D03*
D18*
X286813000Y-57243750D03*
X286813000Y-55084750D03*
X286813000Y-56141000D03*
X286813000Y-51823000D03*
X286813000Y-50766750D03*
X286813000Y-52925750D03*
X286813000Y-53982000D03*
X287702000Y-53982000D03*
X287702000Y-52925750D03*
X287702000Y-50766750D03*
X287702000Y-51823000D03*
X287702000Y-56141000D03*
X287702000Y-55084750D03*
X287702000Y-57243750D03*
X285924000Y-57243750D03*
X285924000Y-55084750D03*
X285924000Y-56141000D03*
X285924000Y-51823000D03*
X285924000Y-50766750D03*
X285924000Y-52925750D03*
X285924000Y-53982000D03*
X285035000Y-53982000D03*
X285035000Y-52925750D03*
X285035000Y-50766750D03*
X285035000Y-51823000D03*
X285035000Y-56141000D03*
X285035000Y-55084750D03*
X285035000Y-57243750D03*
D19*
X283535000Y-58200000D03*
X283535000Y-57550000D03*
X283535000Y-56900000D03*
X283535000Y-56250000D03*
X283535000Y-55600000D03*
X283535000Y-54950000D03*
X283535000Y-54300000D03*
X283535000Y-53650000D03*
X283535000Y-53000000D03*
X283535000Y-52350000D03*
X283535000Y-51700000D03*
X283535000Y-51050000D03*
X283535000Y-50400000D03*
X283535000Y-49750000D03*
X289235000Y-49750000D03*
X289235000Y-50400000D03*
X289235000Y-51050000D03*
X289235000Y-51700000D03*
X289235000Y-52350000D03*
X289235000Y-53000000D03*
X289235000Y-53650000D03*
X289235000Y-54300000D03*
X289235000Y-54950000D03*
X289235000Y-55600000D03*
X289235000Y-56250000D03*
X289235000Y-56900000D03*
X289235000Y-57550000D03*
X289235000Y-58200000D03*
D18*
X131652000Y-72848750D03*
X131652000Y-70689750D03*
X131652000Y-71746000D03*
X131652000Y-67428000D03*
X131652000Y-66371750D03*
X131652000Y-68530750D03*
X131652000Y-69587000D03*
X130763000Y-69587000D03*
X130763000Y-68530750D03*
X130763000Y-66371750D03*
X130763000Y-67428000D03*
X130763000Y-71746000D03*
X130763000Y-70689750D03*
X130763000Y-72848750D03*
X132541000Y-72848750D03*
X132541000Y-70689750D03*
X132541000Y-71746000D03*
X132541000Y-67428000D03*
X132541000Y-66371750D03*
X132541000Y-68530750D03*
X132541000Y-69587000D03*
X133430000Y-69587000D03*
X133430000Y-68530750D03*
X133430000Y-66371750D03*
X133430000Y-67428000D03*
X133430000Y-71746000D03*
X133430000Y-70689750D03*
X133430000Y-72848750D03*
D20*
X126431040Y-109560360D03*
D21*
X126431040Y-112060360D03*
D22*
X226314000Y-83106260D03*
D23*
X226314000Y-89105740D03*
D20*
X126542800Y-89535000D03*
D21*
X126542800Y-92035000D03*
D20*
X126120000Y-69550000D03*
D21*
X126120000Y-72050000D03*
D20*
X126365000Y-49555400D03*
D21*
X126365000Y-52055400D03*
D20*
X298323000Y-112776000D03*
D21*
X298323000Y-115276000D03*
D20*
X298323000Y-91186000D03*
D21*
X298323000Y-93686000D03*
D20*
X298323000Y-72390000D03*
D21*
X298323000Y-74890000D03*
D22*
X206870000Y-84340260D03*
D23*
X206870000Y-90339740D03*
D24*
X216520000Y-87350000D03*
X216520000Y-89250000D03*
D20*
X298510000Y-53780000D03*
D21*
X298510000Y-56280000D03*
D25*
X211510000Y-84290000D03*
D26*
X214050000Y-84290000D03*
X216590000Y-84290000D03*
D27*
X113520000Y-48800000D03*
X113520000Y-118800000D03*
X303520000Y-118800000D03*
X303520000Y-48800000D03*
M02*
