M48
;DRILL file {KiCad 4.0.4-stable} date Sat Oct 15 20:38:06 2016
;FORMAT={-:-/ absolute / inch / decimal}
FMAT,2
INCH,TZ
T1C0.012
T2C0.016
T3C0.030
T4C0.031
T5C0.032
T6C0.039
T7C0.040
T8C0.059
T9C0.126
%
G90
G05
M72
T1
X4.3807Y-2.1472
X4.3807Y-2.3441
X4.3807Y-2.5409
X4.3807Y-2.7378
X4.3807Y-2.9346
X4.3807Y-3.1315
X4.3807Y-3.3283
X4.3807Y-3.5252
X4.3807Y-3.722
X4.3807Y-3.9189
X4.3807Y-4.1157
X4.3807Y-4.3126
X4.6366Y-3.7516
X4.6366Y-3.9287
X4.6366Y-4.1256
X4.6366Y-4.3224
X4.6661Y-1.8421
X4.9024Y-3.0724
X4.9024Y-3.1413
X4.9024Y-3.2102
X4.9024Y-3.2791
X4.9024Y-3.348
X4.9024Y-3.8697
X4.9024Y-4.1551
X4.9122Y-1.8028
X4.9122Y-2.3343
X4.9122Y-2.5803
X4.9713Y-2.3343
X4.9713Y-2.5803
X5.0795Y-2.4819
X5.0795Y-3.0823
X5.0795Y-3.1315
X5.0795Y-3.1807
X5.0992Y-3.8795
X5.1189Y-2.2949
X5.1481Y-1.8262
X5.1481Y-1.8678
X5.1481Y-1.9112
X5.1481Y-1.9528
X5.1481Y-1.9962
X5.1481Y-2.0378
X5.1481Y-2.0812
X5.1481Y-2.6131
X5.1481Y-2.6546
X5.1481Y-2.6981
X5.1481Y-2.7396
X5.1481Y-2.7831
X5.1481Y-2.8246
X5.1481Y-2.8681
X5.1481Y-3.4001
X5.1481Y-3.4417
X5.1481Y-3.4851
X5.1481Y-3.5267
X5.1481Y-3.5701
X5.1481Y-3.6117
X5.1481Y-3.6551
X5.1481Y-4.1883
X5.1481Y-4.2298
X5.1481Y-4.2733
X5.1481Y-4.3148
X5.1481Y-4.3583
X5.1481Y-4.3998
X5.1481Y-4.4433
X5.1831Y-1.8262
X5.1831Y-1.8678
X5.1831Y-1.9112
X5.1831Y-1.9528
X5.1831Y-1.9962
X5.1831Y-2.0378
X5.1831Y-2.0812
X5.1831Y-2.6131
X5.1831Y-2.6546
X5.1831Y-2.6981
X5.1831Y-2.7396
X5.1831Y-2.7831
X5.1831Y-2.8246
X5.1831Y-2.8681
X5.1831Y-3.4001
X5.1831Y-3.4417
X5.1831Y-3.4851
X5.1831Y-3.5267
X5.1831Y-3.5701
X5.1831Y-3.6117
X5.1831Y-3.6551
X5.1831Y-4.1883
X5.1831Y-4.2298
X5.1831Y-4.2733
X5.1831Y-4.3148
X5.1831Y-4.3583
X5.1831Y-4.3998
X5.1831Y-4.4433
X5.2181Y-1.8262
X5.2181Y-1.8678
X5.2181Y-1.9112
X5.2181Y-1.9528
X5.2181Y-1.9962
X5.2181Y-2.0378
X5.2181Y-2.0812
X5.2181Y-2.6131
X5.2181Y-2.6546
X5.2181Y-2.6981
X5.2181Y-2.7396
X5.2181Y-2.7831
X5.2181Y-2.8246
X5.2181Y-2.8681
X5.2181Y-3.4001
X5.2181Y-3.4417
X5.2181Y-3.4851
X5.2181Y-3.5267
X5.2181Y-3.5701
X5.2181Y-3.6117
X5.2181Y-3.6551
X5.2181Y-4.1883
X5.2181Y-4.2298
X5.2181Y-4.2733
X5.2181Y-4.3148
X5.2181Y-4.3583
X5.2181Y-4.3998
X5.2181Y-4.4433
X5.2531Y-1.8262
X5.2531Y-1.8678
X5.2531Y-1.9112
X5.2531Y-1.9528
X5.2531Y-1.9962
X5.2531Y-2.0378
X5.2531Y-2.0812
X5.2531Y-2.6131
X5.2531Y-2.6546
X5.2531Y-2.6981
X5.2531Y-2.7396
X5.2531Y-2.7831
X5.2531Y-2.8246
X5.2531Y-2.8681
X5.2531Y-3.4001
X5.2531Y-3.4417
X5.2531Y-3.4851
X5.2531Y-3.5267
X5.2531Y-3.5701
X5.2531Y-3.6117
X5.2531Y-3.6551
X5.2531Y-4.1883
X5.2531Y-4.2298
X5.2531Y-4.2733
X5.2531Y-4.3148
X5.2531Y-4.3583
X5.2531Y-4.3998
X5.2531Y-4.4433
X5.2961Y-2.4425
X5.3551Y-2.2358
X5.3945Y-2.2752
X5.4043Y-2.9642
X5.4043Y-3.0232
X5.4043Y-3.0823
X5.4142Y-2.4425
X11.2213Y-2.7875
X11.2213Y-2.8291
X11.2213Y-2.8725
X11.2213Y-2.9141
X11.2213Y-2.9575
X11.2213Y-2.9991
X11.2213Y-3.0425
X11.2219Y-1.9987
X11.2219Y-2.0403
X11.2219Y-2.0837
X11.2219Y-2.1253
X11.2219Y-2.1687
X11.2219Y-2.2103
X11.2219Y-2.2537
X11.2228Y-3.5784
X11.2228Y-3.62
X11.2228Y-3.6634
X11.2228Y-3.705
X11.2228Y-3.7484
X11.2228Y-3.79
X11.2228Y-3.8334
X11.2228Y-4.3619
X11.2228Y-4.4035
X11.2228Y-4.4469
X11.2228Y-4.4885
X11.2228Y-4.5319
X11.2228Y-4.5735
X11.2228Y-4.6169
X11.2563Y-2.7875
X11.2563Y-2.8291
X11.2563Y-2.8725
X11.2563Y-2.9141
X11.2563Y-2.9575
X11.2563Y-2.9991
X11.2563Y-3.0425
X11.2569Y-1.9987
X11.2569Y-2.0403
X11.2569Y-2.0837
X11.2569Y-2.1253
X11.2569Y-2.1687
X11.2569Y-2.2103
X11.2569Y-2.2537
X11.2578Y-3.5784
X11.2578Y-3.62
X11.2578Y-3.6634
X11.2578Y-3.705
X11.2578Y-3.7484
X11.2578Y-3.79
X11.2578Y-3.8334
X11.2578Y-4.3619
X11.2578Y-4.4035
X11.2578Y-4.4469
X11.2578Y-4.4885
X11.2578Y-4.5319
X11.2578Y-4.5735
X11.2578Y-4.6169
X11.2913Y-2.7875
X11.2913Y-2.8291
X11.2913Y-2.8725
X11.2913Y-2.9141
X11.2913Y-2.9575
X11.2913Y-2.9991
X11.2913Y-3.0425
X11.2919Y-1.9987
X11.2919Y-2.0403
X11.2919Y-2.0837
X11.2919Y-2.1253
X11.2919Y-2.1687
X11.2919Y-2.2103
X11.2919Y-2.2537
X11.2928Y-3.5784
X11.2928Y-3.62
X11.2928Y-3.6634
X11.2928Y-3.705
X11.2928Y-3.7484
X11.2928Y-3.79
X11.2928Y-3.8334
X11.2928Y-4.3619
X11.2928Y-4.4035
X11.2928Y-4.4469
X11.2928Y-4.4885
X11.2928Y-4.5319
X11.2928Y-4.5735
X11.2928Y-4.6169
X11.3263Y-2.7875
X11.3263Y-2.8291
X11.3263Y-2.8725
X11.3263Y-2.9141
X11.3263Y-2.9575
X11.3263Y-2.9991
X11.3263Y-3.0425
X11.3269Y-1.9987
X11.3269Y-2.0403
X11.3269Y-2.0837
X11.3269Y-2.1253
X11.3269Y-2.1687
X11.3269Y-2.2103
X11.3269Y-2.2537
X11.3278Y-3.5784
X11.3278Y-3.62
X11.3278Y-3.6634
X11.3278Y-3.705
X11.3278Y-3.7484
X11.3278Y-3.79
X11.3278Y-3.8334
X11.3278Y-4.3619
X11.3278Y-4.4035
X11.3278Y-4.4469
X11.3278Y-4.4885
X11.3278Y-4.5319
X11.3278Y-4.5735
X11.3278Y-4.6169
X11.6248Y-3.4071
X11.6346Y-3.1807
X11.6346Y-3.9287
X11.6543Y-3.8795
X11.6543Y-4.1551
X11.6543Y-4.2732
X11.6839Y-1.8224
X11.6839Y-3.9287
X11.6937Y-2.6984
X11.6937Y-3.2398
X11.6937Y-3.3382
X11.7035Y-2.3933
X11.7232Y-2.6098
X11.7528Y-2.4819
X11.7823Y-2.6984
X11.8118Y-1.8224
X12.0382Y-2.2161
X12.0382Y-2.413
X12.0382Y-2.6098
X12.0382Y-2.8067
X12.0382Y-3.0035
X12.0382Y-3.2004
X12.0382Y-3.3972
X12.0382Y-3.5941
X12.0382Y-3.7909
X12.0382Y-3.9878
X12.0382Y-4.1846
X12.0382Y-4.3815
T2
X4.725Y-2.
X4.725Y-3.6
X4.725Y-3.95
X4.725Y-4.375
X4.7252Y-2.8138
X4.75Y-1.975
X4.75Y-2.775
X4.75Y-3.175
X4.75Y-3.55
X4.75Y-3.975
X4.75Y-4.35
X4.775Y-1.885
X4.775Y-2.665
X4.775Y-3.075
X4.775Y-3.45
X4.775Y-4.
X4.775Y-4.25
X4.8Y-1.85
X4.8Y-2.64
X4.8Y-2.975
X4.8Y-3.425
X4.8Y-4.025
X4.8Y-4.225
X4.825Y-2.88
X4.825Y-3.375
X4.825Y-3.675
X4.825Y-4.05
X4.825Y-4.455
X4.85Y-2.93
X4.85Y-3.7307
X4.85Y-4.075
X4.85Y-4.525
X4.865Y-2.085
X4.875Y-3.005
X4.875Y-3.785
X4.8775Y-3.4875
X4.8894Y-4.2988
X4.95Y-2.125
X4.97Y-3.235
X4.99Y-2.91
X5.005Y-3.695
X5.0225Y-2.198
X5.0235Y-2.2845
X5.025Y-2.7
X5.032Y-1.9145
X5.0336Y-1.8372
X5.035Y-3.41
X5.035Y-4.2
X5.05Y-2.15
X5.1976Y-4.5909
X5.275Y-4.075
X5.3Y-4.05
X5.325Y-4.025
X5.35Y-4.
X5.3584Y-2.156
X5.375Y-3.975
X5.4Y-3.95
X5.42Y-2.5674
X5.42Y-3.3548
X5.42Y-4.1422
X5.439Y-3.539
X5.439Y-1.963
X5.439Y-2.7504
X5.439Y-4.3252
X5.45Y-1.78
X5.474Y-1.988
X5.474Y-2.7754
X5.474Y-3.5628
X5.474Y-4.3502
X7.64Y-2.075
X7.64Y-2.8624
X7.64Y-3.6498
X7.64Y-4.4372
X8.209Y-2.169
X8.209Y-2.9564
X8.209Y-3.7438
X8.209Y-4.5312
X8.4626Y-3.228
X8.4768Y-2.6083
X8.5689Y-2.7012
X8.5882Y-3.2252
X8.7728Y-2.9386
X8.974Y-2.9972
X9.0825Y-3.2475
X9.153Y-3.336
X9.2191Y-3.3968
X9.2961Y-3.487
X9.6008Y-3.7928
X9.6844Y-3.8775
X9.7087Y-3.961
X9.813Y-3.9594
X9.8291Y-3.8827
X9.8508Y-4.1209
X9.9638Y-4.1189
X9.9803Y-4.1811
X10.0063Y-3.8819
X10.0287Y-4.5606
X10.0749Y-4.2746
X10.415Y-4.5358
X10.46Y-3.765
X10.8509Y-2.9624
X10.8585Y-3.7377
X10.895Y-3.7188
X10.9172Y-4.4898
X10.9311Y-3.6913
X10.96Y-2.175
X10.97Y-2.13
X10.9728Y-4.4856
X10.975Y-2.915
X10.99Y-2.165
X10.99Y-2.9524
X11.0173Y-4.4803
X11.0197Y-2.9315
X11.02Y-2.145
X11.137Y-3.9331
X11.155Y-1.915
X11.155Y-2.7
X11.1575Y-3.9594
X11.1638Y-3.4949
X11.1642Y-4.2723
X11.3252Y-3.1523
X11.3391Y-3.9353
X11.3541Y-3.1215
X11.3873Y-4.6962
X11.388Y-2.334
X11.437Y-2.9008
X11.4392Y-4.6731
X11.4756Y-2.1909
X11.4909Y-2.9901
X11.5071Y-3.8831
X11.5146Y-3.6913
X11.5152Y-3.8025
X11.5205Y-4.4772
X11.5217Y-4.1358
X11.5218Y-2.1888
X11.5278Y-4.5651
X11.529Y-2.151
X11.5299Y-4.5972
X11.532Y-2.2488
X11.5346Y-2.7214
X11.5362Y-4.3394
X11.5448Y-4.7372
X11.548Y-3.3304
X11.5482Y-3.249
X11.5488Y-3.4712
X11.6382Y-2.3894
X11.6839Y-1.9898
X11.7134Y-1.9602
X11.7146Y-2.5343
X11.715Y-3.005
X11.7409Y-3.789
X11.7985Y-2.5447
X11.799Y-2.6033
X11.8236Y-4.4196
X11.825Y-3.975
X11.8251Y-3.5042
X11.8498Y-3.477
X11.8499Y-4.3943
X11.85Y-2.89
X11.85Y-4.
X11.8748Y-4.3682
X11.875Y-2.785
X11.875Y-4.025
X11.875Y-4.3686
X11.8751Y-4.3686
X11.8752Y-3.4296
X11.8998Y-3.3946
X11.8998Y-4.3407
X11.9Y-2.7362
X11.9Y-4.05
X11.925Y-4.1
X11.9252Y-3.7531
X11.9262Y-3.0515
X11.9292Y-2.6689
X11.95Y-4.125
X11.9514Y-3.125
X11.9518Y-2.7303
T3
X5.5657Y-1.8665
X5.5657Y-1.9665
X5.5657Y-2.2602
X5.5657Y-2.3602
X5.5657Y-2.6539
X5.5657Y-2.7539
X5.5657Y-3.0476
X5.5657Y-3.1476
X5.5657Y-3.4413
X5.5657Y-3.5413
X5.5657Y-3.835
X5.5657Y-3.935
X5.5657Y-4.2287
X5.5657Y-4.3287
X5.5657Y-4.6224
X5.5657Y-4.7224
X5.9594Y-1.8665
X5.9594Y-1.9665
X5.9594Y-2.2602
X5.9594Y-2.3602
X5.9594Y-2.6539
X5.9594Y-2.7539
X5.9594Y-3.0476
X5.9594Y-3.1476
X5.9594Y-3.4413
X5.9594Y-3.5413
X5.9594Y-3.835
X5.9594Y-3.935
X5.9594Y-4.2287
X5.9594Y-4.3287
X5.9594Y-4.6224
X5.9594Y-4.7224
X6.3531Y-1.8665
X6.3531Y-1.9665
X6.3531Y-2.2602
X6.3531Y-2.3602
X6.3531Y-2.6539
X6.3531Y-2.7539
X6.3531Y-3.0476
X6.3531Y-3.1476
X6.3531Y-3.4413
X6.3531Y-3.5413
X6.3531Y-3.835
X6.3531Y-3.935
X6.3531Y-4.2287
X6.3531Y-4.3287
X6.3531Y-4.6224
X6.3531Y-4.7224
X6.7469Y-1.8665
X6.7469Y-1.9665
X6.7469Y-2.2602
X6.7469Y-2.3602
X6.7469Y-2.6539
X6.7469Y-2.7539
X6.7469Y-3.0476
X6.7469Y-3.1476
X6.7469Y-3.4413
X6.7469Y-3.5413
X6.7469Y-3.835
X6.7469Y-3.935
X6.7469Y-4.2287
X6.7469Y-4.3287
X6.7469Y-4.6224
X6.7469Y-4.7224
X7.1406Y-1.8665
X7.1406Y-1.9665
X7.1406Y-2.2602
X7.1406Y-2.3602
X7.1406Y-2.6539
X7.1406Y-2.7539
X7.1406Y-3.0476
X7.1406Y-3.1476
X7.1406Y-3.4413
X7.1406Y-3.5413
X7.1406Y-3.835
X7.1406Y-3.935
X7.1406Y-4.2287
X7.1406Y-4.3287
X7.1406Y-4.6224
X7.1406Y-4.7224
X7.5343Y-1.8665
X7.5343Y-1.9665
X7.5343Y-2.2602
X7.5343Y-2.3602
X7.5343Y-2.6539
X7.5343Y-2.7539
X7.5343Y-3.0476
X7.5343Y-3.1476
X7.5343Y-3.4413
X7.5343Y-3.5413
X7.5343Y-3.835
X7.5343Y-3.935
X7.5343Y-4.2287
X7.5343Y-4.3287
X7.5343Y-4.6224
X7.5343Y-4.7224
X7.928Y-1.8665
X7.928Y-1.9665
X7.928Y-2.2602
X7.928Y-2.3602
X7.928Y-2.6539
X7.928Y-2.7539
X7.928Y-3.0476
X7.928Y-3.1476
X7.928Y-3.4413
X7.928Y-3.5413
X7.928Y-3.835
X7.928Y-3.935
X7.928Y-4.2287
X7.928Y-4.3287
X7.928Y-4.6224
X7.928Y-4.7224
X8.3217Y-1.8665
X8.3217Y-1.9665
X8.3217Y-2.2602
X8.3217Y-2.3602
X8.3217Y-2.6539
X8.3217Y-2.7539
X8.3217Y-3.0476
X8.3217Y-3.1476
X8.3217Y-3.4413
X8.3217Y-3.5413
X8.3217Y-3.835
X8.3217Y-3.935
X8.3217Y-4.2287
X8.3217Y-4.3287
X8.3217Y-4.6224
X8.3217Y-4.7224
X8.7154Y-1.8665
X8.7154Y-1.9665
X8.7154Y-2.2602
X8.7154Y-2.3602
X8.7154Y-2.6539
X8.7154Y-2.7539
X8.7154Y-3.0476
X8.7154Y-3.1476
X8.7154Y-3.4413
X8.7154Y-3.5413
X8.7154Y-3.835
X8.7154Y-3.935
X8.7154Y-4.2287
X8.7154Y-4.3287
X8.7154Y-4.6224
X8.7154Y-4.7224
X9.1091Y-1.8665
X9.1091Y-1.9665
X9.1091Y-2.2602
X9.1091Y-2.3602
X9.1091Y-2.6539
X9.1091Y-2.7539
X9.1091Y-3.0476
X9.1091Y-3.1476
X9.1091Y-3.4413
X9.1091Y-3.5413
X9.1091Y-3.835
X9.1091Y-3.935
X9.1091Y-4.2287
X9.1091Y-4.3287
X9.1091Y-4.6224
X9.1091Y-4.7224
X9.5028Y-1.8665
X9.5028Y-1.9665
X9.5028Y-2.2602
X9.5028Y-2.3602
X9.5028Y-2.6539
X9.5028Y-2.7539
X9.5028Y-3.0476
X9.5028Y-3.1476
X9.5028Y-3.4413
X9.5028Y-3.5413
X9.5028Y-3.835
X9.5028Y-3.935
X9.5028Y-4.2287
X9.5028Y-4.3287
X9.5028Y-4.6224
X9.5028Y-4.7224
X9.8965Y-1.8665
X9.8965Y-1.9665
X9.8965Y-2.2602
X9.8965Y-2.3602
X9.8965Y-2.6539
X9.8965Y-2.7539
X9.8965Y-3.0476
X9.8965Y-3.1476
X9.8965Y-3.4413
X9.8965Y-3.5413
X9.8965Y-3.835
X9.8965Y-3.935
X9.8965Y-4.2287
X9.8965Y-4.3287
X9.8965Y-4.6224
X9.8965Y-4.7224
X10.2902Y-1.8665
X10.2902Y-1.9665
X10.2902Y-2.2602
X10.2902Y-2.3602
X10.2902Y-2.6539
X10.2902Y-2.7539
X10.2902Y-3.0476
X10.2902Y-3.1476
X10.2902Y-3.4413
X10.2902Y-3.5413
X10.2902Y-3.835
X10.2902Y-3.935
X10.2902Y-4.2287
X10.2902Y-4.3287
X10.2902Y-4.6224
X10.2902Y-4.7224
X10.6839Y-1.8665
X10.6839Y-1.9665
X10.6839Y-2.2602
X10.6839Y-2.3602
X10.6839Y-2.6539
X10.6839Y-2.7539
X10.6839Y-3.0476
X10.6839Y-3.1476
X10.6839Y-3.4413
X10.6839Y-3.5413
X10.6839Y-3.835
X10.6839Y-3.935
X10.6839Y-4.2287
X10.6839Y-4.3287
X10.6839Y-4.6224
X10.6839Y-4.7224
X11.0776Y-1.8665
X11.0776Y-1.9665
X11.0776Y-2.2602
X11.0776Y-2.3602
X11.0776Y-2.6539
X11.0776Y-2.7539
X11.0776Y-3.0476
X11.0776Y-3.1476
X11.0776Y-3.4413
X11.0776Y-3.5413
X11.0776Y-3.835
X11.0776Y-3.935
X11.0776Y-4.2287
X11.0776Y-4.3287
X11.0776Y-4.6224
X11.0776Y-4.7224
X11.4713Y-1.8665
X11.4713Y-1.9665
X11.4713Y-2.2602
X11.4713Y-2.3602
X11.4713Y-2.6539
X11.4713Y-2.7539
X11.4713Y-3.0476
X11.4713Y-3.1476
X11.4713Y-3.4413
X11.4713Y-3.5413
X11.4713Y-3.835
X11.4713Y-3.935
X11.4713Y-4.2287
X11.4713Y-4.3287
X11.4713Y-4.6224
X11.4713Y-4.7224
T4
X4.9654Y-2.7382
X4.975Y-1.951
X4.9776Y-4.3134
X4.982Y-3.525
X11.745Y-2.85
X11.745Y-3.59
X11.745Y-4.44
X11.7524Y-2.1173
T5
X4.9654Y-2.8366
X4.975Y-2.0494
X4.9776Y-4.4118
X4.982Y-3.6234
X11.745Y-2.9484
X11.745Y-3.6884
X11.745Y-4.5384
X11.7524Y-2.2157
T6
X8.3272Y-3.3185
T7
X4.525Y-2.875
X4.525Y-2.975
X4.525Y-3.075
X4.525Y-3.175
X4.525Y-3.275
X4.525Y-3.375
X4.525Y-3.475
X4.525Y-3.575
X4.625Y-2.875
X4.625Y-2.975
X4.625Y-3.075
X4.625Y-3.175
X4.625Y-3.275
X4.625Y-3.375
X4.625Y-3.475
X4.625Y-3.575
T8
X8.4272Y-3.3185
X8.5272Y-3.3185
T9
X4.5087Y-1.9602
X4.5087Y-4.6374
X11.9102Y-1.9602
X11.9102Y-4.6374
T0
M30
