M48
;DRILL file {KiCad 4.0.4-stable} date Sat Oct 22 19:05:45 2016
;FORMAT={-:-/ absolute / inch / decimal}
FMAT,2
INCH,TZ
T1C0.012
T2C0.016
T3C0.030
T4C0.031
T5C0.032
T6C0.040
T7C0.126
%
G90
G05
M72
T1
X4.6574Y-4.7994
X4.7574Y-4.7994
X4.8574Y-4.7994
X4.9024Y-3.0844
X4.9024Y-3.1334
X4.9024Y-3.1824
X4.9024Y-3.2315
X4.9024Y-3.2805
X4.9024Y-3.3295
X4.9024Y-3.3785
X4.9224Y-2.3244
X4.9224Y-2.3734
X4.9224Y-2.4224
X4.9224Y-2.4715
X4.9224Y-2.5215
X4.9224Y-2.5715
X4.9574Y-4.7994
X4.9724Y-2.3244
X4.9724Y-2.3734
X4.9724Y-2.4224
X4.9724Y-2.4715
X4.9724Y-2.5215
X4.9724Y-2.5715
X5.0574Y-4.7994
X5.0674Y-3.0945
X5.0674Y-3.1435
X5.0724Y-2.3244
X5.0724Y-2.3744
X5.0724Y-2.4234
X5.0724Y-2.4744
X5.1165Y-3.0945
X5.1165Y-3.1435
X5.1224Y-2.3244
X5.1224Y-2.3744
X5.1224Y-2.4234
X5.1224Y-2.4734
X5.1481Y-1.8262
X5.1481Y-1.8678
X5.1481Y-1.9112
X5.1481Y-1.9528
X5.1481Y-1.9962
X5.1481Y-2.0378
X5.1481Y-2.0812
X5.1481Y-2.6131
X5.1481Y-2.6546
X5.1481Y-2.6981
X5.1481Y-2.7396
X5.1481Y-2.7831
X5.1481Y-2.8246
X5.1481Y-2.8681
X5.1481Y-3.4001
X5.1481Y-3.4417
X5.1481Y-3.4851
X5.1481Y-3.5267
X5.1481Y-3.5701
X5.1481Y-3.6117
X5.1481Y-3.6551
X5.1481Y-4.1883
X5.1481Y-4.2298
X5.1481Y-4.2733
X5.1481Y-4.3148
X5.1481Y-4.3583
X5.1481Y-4.3998
X5.1481Y-4.4433
X5.1574Y-4.7994
X5.1655Y-3.0945
X5.1655Y-3.1435
X5.1724Y-2.3244
X5.1724Y-2.3744
X5.1724Y-2.4234
X5.1724Y-2.4734
X5.1831Y-1.8262
X5.1831Y-1.8678
X5.1831Y-1.9112
X5.1831Y-1.9528
X5.1831Y-1.9962
X5.1831Y-2.0378
X5.1831Y-2.0812
X5.1831Y-2.6131
X5.1831Y-2.6546
X5.1831Y-2.6981
X5.1831Y-2.7396
X5.1831Y-2.7831
X5.1831Y-2.8246
X5.1831Y-2.8681
X5.1831Y-3.4001
X5.1831Y-3.4417
X5.1831Y-3.4851
X5.1831Y-3.5267
X5.1831Y-3.5701
X5.1831Y-3.6117
X5.1831Y-3.6551
X5.1831Y-4.1883
X5.1831Y-4.2298
X5.1831Y-4.2733
X5.1831Y-4.3148
X5.1831Y-4.3583
X5.1831Y-4.3998
X5.1831Y-4.4433
X5.2181Y-1.8262
X5.2181Y-1.8678
X5.2181Y-1.9112
X5.2181Y-1.9528
X5.2181Y-1.9962
X5.2181Y-2.0378
X5.2181Y-2.0812
X5.2181Y-2.6131
X5.2181Y-2.6546
X5.2181Y-2.6981
X5.2181Y-2.7396
X5.2181Y-2.7831
X5.2181Y-2.8246
X5.2181Y-2.8681
X5.2181Y-3.4001
X5.2181Y-3.4417
X5.2181Y-3.4851
X5.2181Y-3.5267
X5.2181Y-3.5701
X5.2181Y-3.6117
X5.2181Y-3.6551
X5.2181Y-4.1883
X5.2181Y-4.2298
X5.2181Y-4.2733
X5.2181Y-4.3148
X5.2181Y-4.3583
X5.2181Y-4.3998
X5.2181Y-4.4433
X5.2224Y-2.3744
X5.2224Y-2.4234
X5.2224Y-2.4734
X5.2531Y-1.8262
X5.2531Y-1.8678
X5.2531Y-1.9112
X5.2531Y-1.9528
X5.2531Y-1.9962
X5.2531Y-2.0378
X5.2531Y-2.0812
X5.2531Y-2.6131
X5.2531Y-2.6546
X5.2531Y-2.6981
X5.2531Y-2.7396
X5.2531Y-2.7831
X5.2531Y-2.8246
X5.2531Y-2.8681
X5.2531Y-3.4001
X5.2531Y-3.4417
X5.2531Y-3.4851
X5.2531Y-3.5267
X5.2531Y-3.5701
X5.2531Y-3.6117
X5.2531Y-3.6551
X5.2531Y-4.1883
X5.2531Y-4.2298
X5.2531Y-4.2733
X5.2531Y-4.3148
X5.2531Y-4.3583
X5.2531Y-4.3998
X5.2531Y-4.4433
X5.2574Y-4.7994
X5.2724Y-2.4234
X5.2724Y-2.4734
X5.2815Y-2.9695
X5.2815Y-3.0185
X5.3224Y-2.4234
X5.3224Y-2.4734
X5.3305Y-2.9695
X5.3305Y-3.0185
X5.3305Y-3.0675
X5.3474Y-2.2494
X5.3474Y-2.2984
X5.3574Y-4.7994
X5.3724Y-2.4234
X5.3724Y-2.4734
X5.3795Y-2.9695
X5.3795Y-3.0185
X5.3795Y-3.0675
X5.3974Y-2.2494
X5.3974Y-2.2984
X5.4285Y-2.9695
X5.4285Y-3.0185
X5.4285Y-3.0675
X5.4574Y-4.7994
X5.4765Y-3.0675
X5.5574Y-4.7994
X5.6474Y-3.1145
X5.6474Y-3.1635
X5.6574Y-4.7994
X5.6717Y-2.3486
X5.6935Y-2.9695
X5.6965Y-3.1145
X5.6965Y-3.1635
X5.7031Y-2.3841
X5.7346Y-2.4195
X5.7455Y-3.1145
X5.7455Y-3.1635
X5.7574Y-4.7994
X5.7945Y-3.1145
X5.7945Y-3.1635
X5.8435Y-3.1145
X5.8435Y-3.1635
X5.8574Y-4.7994
X5.8585Y-2.9695
X5.9574Y-4.7994
X6.0474Y-3.1145
X6.0474Y-3.1635
X6.0574Y-4.7994
X6.0885Y-2.9645
X6.0965Y-3.1145
X6.0965Y-3.1635
X6.1455Y-3.1145
X6.1455Y-3.1635
X6.1574Y-4.7994
X6.1945Y-3.1145
X6.1945Y-3.1635
X6.2435Y-3.1145
X6.2435Y-3.1635
X6.2535Y-2.9645
X6.2574Y-4.7994
X6.3574Y-4.7994
X6.4374Y-3.1145
X6.4374Y-3.1635
X6.4574Y-4.7994
X6.4735Y-2.9595
X6.4865Y-3.1145
X6.4865Y-3.1635
X6.5355Y-3.1145
X6.5355Y-3.1635
X6.5574Y-4.7994
X6.5845Y-3.1145
X6.5845Y-3.1635
X6.6335Y-3.1145
X6.6335Y-3.1635
X6.6385Y-2.9595
X6.6574Y-4.7994
X6.7574Y-4.7994
X6.8224Y-3.1195
X6.8224Y-3.1685
X6.8574Y-4.7994
X6.8635Y-2.9545
X6.8715Y-3.1195
X6.8715Y-3.1685
X6.9205Y-3.1195
X6.9205Y-3.1685
X6.9574Y-4.7994
X6.9695Y-3.1195
X6.9695Y-3.1685
X7.0185Y-3.1195
X7.0185Y-3.1685
X7.0285Y-2.9545
X7.0574Y-4.7994
X7.1574Y-4.7994
X7.2224Y-3.1195
X7.2224Y-3.1685
X7.2574Y-4.7994
X7.2715Y-3.1195
X7.2715Y-3.1685
X7.3205Y-3.1195
X7.3205Y-3.1685
X7.3574Y-4.7994
X7.3695Y-3.1195
X7.3695Y-3.1685
X7.4185Y-3.1195
X7.4185Y-3.1685
X7.4574Y-4.7994
X7.5574Y-4.7994
X7.6124Y-3.1145
X7.6124Y-3.1635
X7.6574Y-4.7994
X7.6615Y-3.1145
X7.6615Y-3.1635
X7.7105Y-3.1145
X7.7105Y-3.1635
X7.7574Y-4.7994
X7.7595Y-3.1145
X7.7595Y-3.1635
X7.8085Y-3.1145
X7.8085Y-3.1635
X7.8574Y-4.7994
X7.9574Y-4.7994
X8.0124Y-3.1145
X8.0124Y-3.1635
X8.0574Y-4.7994
X8.0615Y-3.1145
X8.0615Y-3.1635
X8.1105Y-3.1145
X8.1105Y-3.1635
X8.1574Y-4.7994
X8.1595Y-3.1145
X8.1595Y-3.1635
X8.1717Y-2.5061
X8.2085Y-3.1145
X8.2085Y-3.1635
X8.211Y-2.5494
X8.2504Y-2.5061
X8.2504Y-2.5848
X8.2574Y-4.7994
X8.2976Y-2.5376
X8.3574Y-4.7994
X8.3685Y-2.5888
X8.4024Y-4.5494
X8.4074Y-3.5044
X8.4074Y-3.5534
X8.4074Y-3.6024
X8.4074Y-3.6515
X8.4074Y-3.7005
X8.4074Y-3.7495
X8.4074Y-4.6894
X8.4124Y-2.7144
X8.4124Y-2.7634
X8.4124Y-2.8124
X8.4124Y-2.8615
X8.4124Y-2.9105
X8.4124Y-2.9595
X8.4124Y-3.1145
X8.4124Y-3.1545
X8.4174Y-3.8994
X8.4224Y-4.1594
X8.4224Y-4.2994
X8.4515Y-4.5494
X8.4524Y-3.8994
X8.4565Y-3.5044
X8.4565Y-3.5534
X8.4565Y-3.6024
X8.4565Y-3.6515
X8.4565Y-3.7005
X8.4565Y-3.7495
X8.4565Y-4.6894
X8.4574Y-3.1145
X8.4574Y-3.1545
X8.4574Y-4.1594
X8.4574Y-4.2994
X8.4574Y-4.7994
X8.4615Y-2.7144
X8.4615Y-2.7634
X8.4615Y-2.8124
X8.4615Y-2.8615
X8.4615Y-2.9105
X8.4615Y-2.9595
X8.4624Y-1.9394
X8.4624Y-1.9884
X8.4624Y-2.0374
X8.4624Y-2.0865
X8.4624Y-2.1365
X8.4624Y-2.1865
X8.4624Y-2.3234
X8.4624Y-2.3724
X8.4624Y-2.4215
X8.4624Y-2.4715
X8.4624Y-2.5215
X8.4674Y-3.3894
X8.5055Y-4.6894
X8.5545Y-4.6894
X8.5574Y-4.7994
X8.5774Y-2.3234
X8.5774Y-2.3724
X8.5774Y-2.4215
X8.5774Y-2.4715
X8.5774Y-2.5215
X8.5774Y-3.2744
X8.5814Y-2.5844
X8.5874Y-2.7834
X8.5874Y-2.8324
X8.5874Y-2.8815
X8.5874Y-2.9305
X8.5874Y-2.9795
X8.5874Y-3.1195
X8.5874Y-3.1595
X8.5874Y-3.3794
X8.5874Y-3.5094
X8.5874Y-3.5584
X8.5874Y-3.6074
X8.5874Y-3.6565
X8.5874Y-3.7055
X8.5874Y-3.7545
X8.5874Y-3.8944
X8.5924Y-1.9394
X8.5924Y-1.9884
X8.5924Y-2.0374
X8.5924Y-2.0865
X8.5924Y-2.1365
X8.5924Y-2.1865
X8.5924Y-4.3044
X8.5974Y-4.1544
X8.5985Y-4.5494
X8.6035Y-4.6894
X8.6274Y-3.8944
X8.6274Y-4.3044
X8.6324Y-3.1195
X8.6324Y-3.1595
X8.6365Y-2.8324
X8.6365Y-2.8815
X8.6365Y-2.9305
X8.6365Y-2.9795
X8.6365Y-3.5094
X8.6365Y-3.5584
X8.6365Y-3.6074
X8.6365Y-3.6565
X8.6365Y-3.7055
X8.6365Y-3.7545
X8.6374Y-4.1544
X8.6474Y-3.3794
X8.6475Y-4.5494
X8.6525Y-4.6894
X8.6574Y-4.7994
X8.7574Y-4.7994
X8.8574Y-4.7994
X8.9574Y-4.7994
X9.0574Y-4.7994
X9.1574Y-4.7994
X9.1974Y-3.1195
X9.1974Y-3.1685
X9.2465Y-3.1195
X9.2465Y-3.1685
X9.2574Y-4.7994
X9.2955Y-3.1195
X9.2955Y-3.1685
X9.3445Y-3.1195
X9.3445Y-3.1685
X9.3574Y-4.7994
X9.3935Y-3.1195
X9.3935Y-3.1685
X9.4574Y-4.7994
X9.5574Y-4.7994
X9.5896Y-3.1195
X9.6386Y-3.1195
X9.6574Y-4.7994
X9.6876Y-3.1195
X9.7366Y-3.1195
X9.7574Y-4.7994
X9.7856Y-3.1195
X9.8574Y-4.7994
X9.8974Y-4.1594
X9.9574Y-4.7994
X10.0574Y-4.7994
X10.0624Y-4.1694
X10.1124Y-4.2144
X10.1574Y-4.7994
X10.2574Y-4.7994
X10.3574Y-4.7994
X10.4574Y-4.7994
X10.5224Y-4.4944
X10.5574Y-4.7994
X10.5715Y-4.4944
X10.6205Y-4.4944
X10.6574Y-4.7994
X10.6695Y-4.4944
X10.7185Y-4.4944
X10.7574Y-4.7994
X10.7675Y-4.4944
X10.8165Y-4.4944
X10.8574Y-4.7994
X10.9574Y-4.7994
X11.0574Y-4.7994
X11.1474Y-4.1444
X11.1574Y-4.7994
X11.1624Y-3.2294
X11.1624Y-3.3694
X11.1965Y-4.1444
X11.2115Y-3.2294
X11.2115Y-3.3694
X11.2213Y-2.7875
X11.2213Y-2.8291
X11.2213Y-2.8725
X11.2213Y-2.9141
X11.2213Y-2.9575
X11.2213Y-2.9991
X11.2213Y-3.0425
X11.2219Y-1.9987
X11.2219Y-2.0403
X11.2219Y-2.0837
X11.2219Y-2.1253
X11.2219Y-2.1687
X11.2219Y-2.2103
X11.2219Y-2.2537
X11.2228Y-3.5784
X11.2228Y-3.62
X11.2228Y-3.6634
X11.2228Y-3.705
X11.2228Y-3.7484
X11.2228Y-3.79
X11.2228Y-3.8334
X11.2228Y-4.3619
X11.2228Y-4.4035
X11.2228Y-4.4469
X11.2228Y-4.4885
X11.2228Y-4.5319
X11.2228Y-4.5735
X11.2228Y-4.6169
X11.2455Y-4.1444
X11.2563Y-2.7875
X11.2563Y-2.8291
X11.2563Y-2.8725
X11.2563Y-2.9141
X11.2563Y-2.9575
X11.2563Y-2.9991
X11.2563Y-3.0425
X11.2569Y-1.9987
X11.2569Y-2.0403
X11.2569Y-2.0837
X11.2569Y-2.1253
X11.2569Y-2.1687
X11.2569Y-2.2103
X11.2569Y-2.2537
X11.2578Y-3.5784
X11.2578Y-3.62
X11.2578Y-3.6634
X11.2578Y-3.705
X11.2578Y-3.7484
X11.2578Y-3.79
X11.2578Y-3.8334
X11.2578Y-4.3619
X11.2578Y-4.4035
X11.2578Y-4.4469
X11.2578Y-4.4885
X11.2578Y-4.5319
X11.2578Y-4.5735
X11.2578Y-4.6169
X11.2605Y-3.2294
X11.2605Y-3.3694
X11.2913Y-2.7875
X11.2913Y-2.8291
X11.2913Y-2.8725
X11.2913Y-2.9141
X11.2913Y-2.9575
X11.2913Y-2.9991
X11.2913Y-3.0425
X11.2919Y-1.9987
X11.2919Y-2.0403
X11.2919Y-2.0837
X11.2919Y-2.1253
X11.2919Y-2.1687
X11.2919Y-2.2103
X11.2919Y-2.2537
X11.2928Y-3.5784
X11.2928Y-3.62
X11.2928Y-3.6634
X11.2928Y-3.705
X11.2928Y-3.7484
X11.2928Y-3.79
X11.2928Y-3.8334
X11.2928Y-4.3619
X11.2928Y-4.4035
X11.2928Y-4.4469
X11.2928Y-4.4885
X11.2928Y-4.5319
X11.2928Y-4.5735
X11.2928Y-4.6169
X11.2945Y-4.1444
X11.3095Y-3.3694
X11.3263Y-2.7875
X11.3263Y-2.8291
X11.3263Y-2.8725
X11.3263Y-2.9141
X11.3263Y-2.9575
X11.3263Y-2.9991
X11.3263Y-3.0425
X11.3269Y-1.9987
X11.3269Y-2.0403
X11.3269Y-2.0837
X11.3269Y-2.1253
X11.3269Y-2.1687
X11.3269Y-2.2103
X11.3269Y-2.2537
X11.3278Y-3.5784
X11.3278Y-3.62
X11.3278Y-3.6634
X11.3278Y-3.705
X11.3278Y-3.7484
X11.3278Y-3.79
X11.3278Y-3.8334
X11.3278Y-4.3619
X11.3278Y-4.4035
X11.3278Y-4.4469
X11.3278Y-4.4885
X11.3278Y-4.5319
X11.3278Y-4.5735
X11.3278Y-4.6169
X11.3435Y-4.1444
X11.3585Y-3.3694
X11.3925Y-4.1444
X11.4075Y-3.2294
X11.4075Y-3.3694
X11.4415Y-4.1444
X11.4565Y-3.2294
X11.4565Y-3.3694
X11.5424Y-2.5384
X11.5424Y-2.5874
X11.5424Y-2.6365
X11.5574Y-4.7994
X11.6574Y-4.7994
X11.7574Y-4.7994
T2
X4.725Y-2.
X4.725Y-3.6
X4.725Y-3.95
X4.725Y-4.375
X4.7252Y-2.8138
X4.75Y-1.975
X4.75Y-2.775
X4.75Y-3.175
X4.75Y-3.55
X4.75Y-3.975
X4.75Y-4.35
X4.775Y-1.885
X4.775Y-2.665
X4.775Y-3.075
X4.775Y-3.45
X4.775Y-4.
X4.775Y-4.25
X4.8Y-1.85
X4.8Y-2.64
X4.8Y-2.975
X4.8Y-3.425
X4.8Y-4.025
X4.8Y-4.225
X4.825Y-2.88
X4.825Y-3.375
X4.825Y-3.675
X4.825Y-4.05
X4.825Y-4.455
X4.85Y-2.93
X4.85Y-3.7307
X4.85Y-4.075
X4.85Y-4.525
X4.875Y-3.005
X4.875Y-3.785
X4.8775Y-3.4875
X4.8894Y-4.2988
X4.8965Y-2.085
X4.95Y-2.125
X4.97Y-3.235
X4.99Y-2.91
X5.005Y-3.695
X5.0193Y-4.2
X5.0225Y-2.198
X5.0235Y-2.2845
X5.025Y-2.7
X5.032Y-1.9145
X5.0336Y-1.8372
X5.035Y-3.41
X5.05Y-2.15
X5.1976Y-4.5909
X5.275Y-4.075
X5.3Y-4.05
X5.325Y-4.025
X5.35Y-4.
X5.3584Y-2.156
X5.375Y-3.975
X5.4Y-3.95
X5.42Y-2.5674
X5.42Y-3.3548
X5.42Y-4.1422
X5.439Y-3.539
X5.439Y-1.963
X5.439Y-2.7504
X5.439Y-4.3252
X5.45Y-1.78
X5.474Y-1.988
X5.474Y-2.7754
X5.474Y-3.5628
X5.474Y-4.3502
X7.64Y-2.075
X7.64Y-2.8624
X7.64Y-3.6498
X7.64Y-4.4372
X8.2074Y-4.4794
X8.209Y-2.169
X8.209Y-2.9564
X8.209Y-3.7438
X8.4626Y-3.228
X8.4768Y-2.6083
X8.5689Y-2.7012
X8.5882Y-3.2252
X8.7728Y-2.9386
X8.974Y-2.9972
X9.0825Y-3.2475
X9.153Y-3.336
X9.2191Y-3.3968
X9.2961Y-3.487
X9.6008Y-3.7928
X9.6087Y-3.8827
X9.7724Y-3.9606
X9.8508Y-4.1209
X9.9638Y-4.1189
X10.0063Y-3.8819
X10.0287Y-4.5606
X10.0424Y-4.2344
X10.1724Y-4.3644
X10.415Y-4.5358
X10.46Y-3.765
X10.8509Y-2.9624
X10.8585Y-3.7377
X10.895Y-3.7188
X10.9172Y-4.4898
X10.9311Y-3.6913
X10.96Y-2.175
X10.97Y-2.13
X10.9728Y-4.4856
X10.975Y-2.915
X10.99Y-2.165
X10.99Y-2.9524
X11.0173Y-4.4803
X11.0197Y-2.9315
X11.02Y-2.145
X11.137Y-3.9331
X11.155Y-1.915
X11.155Y-2.7
X11.1575Y-3.9594
X11.1638Y-3.4949
X11.1642Y-4.2723
X11.3252Y-3.1523
X11.3391Y-3.9353
X11.3541Y-3.1215
X11.3873Y-4.6962
X11.388Y-2.334
X11.437Y-2.9008
X11.4392Y-4.6731
X11.4756Y-2.1909
X11.4909Y-2.9901
X11.5071Y-3.8831
X11.5146Y-3.6913
X11.5152Y-3.8025
X11.5205Y-4.4772
X11.5217Y-4.1358
X11.5218Y-2.1888
X11.5278Y-4.5651
X11.529Y-2.151
X11.5299Y-4.5972
X11.532Y-2.2488
X11.5346Y-2.7214
X11.5362Y-4.3394
X11.5448Y-4.7372
X11.548Y-3.3304
X11.5482Y-3.249
X11.5488Y-3.4712
X11.6382Y-2.3894
X11.6819Y-2.5039
X11.7134Y-1.9602
X11.715Y-3.005
X11.7331Y-2.0354
X11.7606Y-2.5079
X11.7606Y-2.5827
X11.8236Y-4.4196
X11.825Y-3.975
X11.8251Y-3.5042
X11.8498Y-3.477
X11.8499Y-4.3943
X11.85Y-2.89
X11.85Y-4.
X11.8748Y-4.3682
X11.875Y-2.785
X11.875Y-4.025
X11.875Y-4.3686
X11.8751Y-4.3686
X11.8752Y-3.4296
X11.8874Y-2.739
X11.8998Y-3.3946
X11.8998Y-4.3407
X11.9Y-4.05
X11.925Y-3.0515
X11.925Y-4.1
X11.9252Y-3.7531
X11.928Y-2.6689
X11.95Y-3.125
X11.95Y-4.125
X11.9504Y-2.7461
T3
X5.5657Y-1.8665
X5.5657Y-1.9665
X5.5657Y-2.2602
X5.5657Y-2.3602
X5.5657Y-2.6539
X5.5657Y-2.7539
X5.5657Y-3.0476
X5.5657Y-3.1476
X5.5657Y-3.4413
X5.5657Y-3.5413
X5.5657Y-3.835
X5.5657Y-3.935
X5.5657Y-4.2287
X5.5657Y-4.3287
X5.5657Y-4.6224
X5.5657Y-4.7224
X5.9594Y-1.8665
X5.9594Y-1.9665
X5.9594Y-2.2602
X5.9594Y-2.3602
X5.9594Y-2.6539
X5.9594Y-2.7539
X5.9594Y-3.0476
X5.9594Y-3.1476
X5.9594Y-3.4413
X5.9594Y-3.5413
X5.9594Y-3.835
X5.9594Y-3.935
X5.9594Y-4.2287
X5.9594Y-4.3287
X5.9594Y-4.6224
X5.9594Y-4.7224
X6.3531Y-1.8665
X6.3531Y-1.9665
X6.3531Y-2.2602
X6.3531Y-2.3602
X6.3531Y-2.6539
X6.3531Y-2.7539
X6.3531Y-3.0476
X6.3531Y-3.1476
X6.3531Y-3.4413
X6.3531Y-3.5413
X6.3531Y-3.835
X6.3531Y-3.935
X6.3531Y-4.2287
X6.3531Y-4.3287
X6.3531Y-4.6224
X6.3531Y-4.7224
X6.7469Y-1.8665
X6.7469Y-1.9665
X6.7469Y-2.2602
X6.7469Y-2.3602
X6.7469Y-2.6539
X6.7469Y-2.7539
X6.7469Y-3.0476
X6.7469Y-3.1476
X6.7469Y-3.4413
X6.7469Y-3.5413
X6.7469Y-3.835
X6.7469Y-3.935
X6.7469Y-4.2287
X6.7469Y-4.3287
X6.7469Y-4.6224
X6.7469Y-4.7224
X7.1406Y-1.8665
X7.1406Y-1.9665
X7.1406Y-2.2602
X7.1406Y-2.3602
X7.1406Y-2.6539
X7.1406Y-2.7539
X7.1406Y-3.0476
X7.1406Y-3.1476
X7.1406Y-3.4413
X7.1406Y-3.5413
X7.1406Y-3.835
X7.1406Y-3.935
X7.1406Y-4.2287
X7.1406Y-4.3287
X7.1406Y-4.6224
X7.1406Y-4.7224
X7.5343Y-1.8665
X7.5343Y-1.9665
X7.5343Y-2.2602
X7.5343Y-2.3602
X7.5343Y-2.6539
X7.5343Y-2.7539
X7.5343Y-3.0476
X7.5343Y-3.1476
X7.5343Y-3.4413
X7.5343Y-3.5413
X7.5343Y-3.835
X7.5343Y-3.935
X7.5343Y-4.2287
X7.5343Y-4.3287
X7.5343Y-4.6224
X7.5343Y-4.7224
X7.928Y-1.8665
X7.928Y-1.9665
X7.928Y-2.2602
X7.928Y-2.3602
X7.928Y-2.6539
X7.928Y-2.7539
X7.928Y-3.0476
X7.928Y-3.1476
X7.928Y-3.4413
X7.928Y-3.5413
X7.928Y-3.835
X7.928Y-3.935
X7.928Y-4.2287
X7.928Y-4.3287
X7.928Y-4.6224
X7.928Y-4.7224
X8.3217Y-1.8665
X8.3217Y-1.9665
X8.3217Y-2.2602
X8.3217Y-2.3602
X8.3217Y-2.6539
X8.3217Y-2.7539
X8.3217Y-3.0476
X8.3217Y-3.1476
X8.3217Y-3.4413
X8.3217Y-3.5413
X8.3217Y-3.835
X8.3217Y-3.935
X8.3217Y-4.2287
X8.3217Y-4.3287
X8.3217Y-4.6224
X8.3217Y-4.7224
X8.7154Y-1.8665
X8.7154Y-1.9665
X8.7154Y-2.2602
X8.7154Y-2.3602
X8.7154Y-2.6539
X8.7154Y-2.7539
X8.7154Y-3.0476
X8.7154Y-3.1476
X8.7154Y-3.4413
X8.7154Y-3.5413
X8.7154Y-3.835
X8.7154Y-3.935
X8.7154Y-4.2287
X8.7154Y-4.3287
X8.7154Y-4.6224
X8.7154Y-4.7224
X9.1091Y-1.8665
X9.1091Y-1.9665
X9.1091Y-2.2602
X9.1091Y-2.3602
X9.1091Y-2.6539
X9.1091Y-2.7539
X9.1091Y-3.0476
X9.1091Y-3.1476
X9.1091Y-3.4413
X9.1091Y-3.5413
X9.1091Y-3.835
X9.1091Y-3.935
X9.1091Y-4.2287
X9.1091Y-4.3287
X9.1091Y-4.6224
X9.1091Y-4.7224
X9.5028Y-1.8665
X9.5028Y-1.9665
X9.5028Y-2.2602
X9.5028Y-2.3602
X9.5028Y-2.6539
X9.5028Y-2.7539
X9.5028Y-3.0476
X9.5028Y-3.1476
X9.5028Y-3.4413
X9.5028Y-3.5413
X9.5028Y-3.835
X9.5028Y-3.935
X9.5028Y-4.2287
X9.5028Y-4.3287
X9.5028Y-4.6224
X9.5028Y-4.7224
X9.8965Y-1.8665
X9.8965Y-1.9665
X9.8965Y-2.2602
X9.8965Y-2.3602
X9.8965Y-2.6539
X9.8965Y-2.7539
X9.8965Y-3.0476
X9.8965Y-3.1476
X9.8965Y-3.4413
X9.8965Y-3.5413
X9.8965Y-3.835
X9.8965Y-3.935
X9.8965Y-4.2287
X9.8965Y-4.3287
X9.8965Y-4.6224
X9.8965Y-4.7224
X10.2902Y-1.8665
X10.2902Y-1.9665
X10.2902Y-2.2602
X10.2902Y-2.3602
X10.2902Y-2.6539
X10.2902Y-2.7539
X10.2902Y-3.0476
X10.2902Y-3.1476
X10.2902Y-3.4413
X10.2902Y-3.5413
X10.2902Y-3.835
X10.2902Y-3.935
X10.2902Y-4.2287
X10.2902Y-4.3287
X10.2902Y-4.6224
X10.2902Y-4.7224
X10.6839Y-1.8665
X10.6839Y-1.9665
X10.6839Y-2.2602
X10.6839Y-2.3602
X10.6839Y-2.6539
X10.6839Y-2.7539
X10.6839Y-3.0476
X10.6839Y-3.1476
X10.6839Y-3.4413
X10.6839Y-3.5413
X10.6839Y-3.835
X10.6839Y-3.935
X10.6839Y-4.2287
X10.6839Y-4.3287
X10.6839Y-4.6224
X10.6839Y-4.7224
X11.0776Y-1.8665
X11.0776Y-1.9665
X11.0776Y-2.2602
X11.0776Y-2.3602
X11.0776Y-2.6539
X11.0776Y-2.7539
X11.0776Y-3.0476
X11.0776Y-3.1476
X11.0776Y-3.4413
X11.0776Y-3.5413
X11.0776Y-3.835
X11.0776Y-3.935
X11.0776Y-4.2287
X11.0776Y-4.3287
X11.0776Y-4.6224
X11.0776Y-4.7224
X11.4713Y-1.8665
X11.4713Y-1.9665
X11.4713Y-2.2602
X11.4713Y-2.3602
X11.4713Y-2.6539
X11.4713Y-2.7539
X11.4713Y-3.0476
X11.4713Y-3.1476
X11.4713Y-3.4413
X11.4713Y-3.5413
X11.4713Y-3.835
X11.4713Y-3.935
X11.4713Y-4.2287
X11.4713Y-4.3287
X11.4713Y-4.6224
X11.4713Y-4.7224
T4
X4.9654Y-2.7382
X4.975Y-1.951
X4.9776Y-4.3134
X4.982Y-3.525
X11.745Y-2.85
X11.745Y-3.59
X11.745Y-4.44
X11.7524Y-2.1173
T5
X4.9654Y-2.8366
X4.975Y-2.0494
X4.9776Y-4.4118
X4.982Y-3.6234
X11.745Y-2.9484
X11.745Y-3.6884
X11.745Y-4.5384
X11.7524Y-2.2157
T6
X4.5193Y-2.874
X4.5193Y-2.974
X4.5193Y-3.074
X4.5193Y-3.174
X4.5193Y-3.274
X4.5193Y-3.374
X4.5193Y-3.474
X4.5193Y-3.574
X4.6193Y-2.874
X4.6193Y-2.974
X4.6193Y-3.074
X4.6193Y-3.174
X4.6193Y-3.274
X4.6193Y-3.374
X4.6193Y-3.474
X4.6193Y-3.574
X8.3272Y-3.3185
X8.4272Y-3.3185
X8.5272Y-3.3185
T7
X4.4693Y-1.9213
X4.4693Y-4.6772
X11.9496Y-1.9213
X11.9496Y-4.6772
T0
M30
